/* XPM */
static char *_502e1c88fe04f2dee5ebd4934f02575bWbkAtNXF8a1Wjub[] = {
/* columns rows colors chars-per-pixel */
"150 20 2 1 ",
"  c None",
". c black",
/* pixels */
"......................................................................................................................................................",
"......................................................................................................................................................",
"......................................................................................................................................................",
"......................................................................................................................................................",
"......................................................................................................................................................",
"......................................................................................................................................................",
"......................................................................................................................................................",
"......................................................................................................................................................",
"......................................................................................................................................................",
"......................................................................................................................................................",
"......................................................................................................................................................",
"......................................................................................................................................................",
"......................................................................................................................................................",
"......................................................................................................................................................",
"......................................................................................................................................................",
"......................................................................................................................................................",
"......................................................................................................................................................",
"......................................................................................................................................................",
"......................................................................................................................................................",
"                                                                                                                                                      "
};
