/* XPM */
static char *result[] = {
/* columns rows colors chars-per-pixel */
"50 50 139 2 ",
"   c #222222",
".  c #262525",
"X  c #2F2623",
"o  c #2C2928",
"O  c #322225",
"+  c #3A2227",
"@  c #322923",
"#  c #332C24",
"$  c #3C2F23",
"%  c #302B2B",
"&  c #352E2E",
"*  c #3D3726",
"=  c #393131",
"-  c #3A3131",
";  c #3E3434",
":  c #3E3534",
">  c #422228",
",  c #46222A",
"<  c #40242A",
"1  c #452428",
"2  c #4A222A",
"3  c #52222B",
"4  c #502629",
"5  c #52232C",
"6  c #5A232D",
"7  c #5D2A2A",
"8  c #582C28",
"9  c #5A292C",
"0  c #583125",
"q  c #553D25",
"w  c #433837",
"e  c #463938",
"r  c #483B3A",
"t  c #493C3A",
"y  c #4B3D3B",
"u  c #4B3D3C",
"i  c #4D3F3D",
"p  c #4E3F3D",
"a  c #62232F",
"s  c #65252E",
"d  c #65252F",
"f  c #67272E",
"g  c #6B2D2B",
"h  c #6B2E2B",
"j  c #6D2A2D",
"k  c #6D2A2E",
"l  c #702C2D",
"z  c #722D2D",
"x  c #633327",
"c  c #6D382F",
"v  c #7B332B",
"b  c #7E352B",
"n  c #78312C",
"m  c #7C392E",
"M  c #753830",
"N  c #753931",
"B  c #4D4329",
"V  c #5C4F2C",
"C  c #624426",
"Z  c #7A4231",
"A  c #7B4331",
"S  c #534340",
"D  c #594743",
"F  c #594744",
"G  c #5A4744",
"H  c #5F4B47",
"J  c #6B534E",
"K  c #6C544E",
"L  c #715851",
"P  c #775C55",
"I  c #83392B",
"U  c #823D2E",
"Y  c #803F2F",
"T  c #874923",
"R  c #874824",
"E  c #80452A",
"W  c #8F4029",
"Q  c #8F422B",
"!  c #88402D",
"~  c #88412E",
"^  c #8D442C",
"/  c #8D442D",
"(  c #8C472E",
")  c #93412A",
"_  c #95462A",
"`  c #94482C",
"'  c #974B2E",
"]  c #9B4A2A",
"[  c #9C4828",
"{  c #9D4828",
"}  c #885828",
"|  c #93502F",
" . c #935431",
".. c #935531",
"X. c #9A5E33",
"o. c #A14A28",
"O. c #A44C28",
"+. c #AA5027",
"@. c #806C2E",
"#. c #9F6229",
"$. c #9B712D",
"%. c #9C712D",
"&. c #986532",
"*. c #9B6234",
"=. c #8E7630",
"-. c #A36D2B",
";. c #A36D2C",
":. c #B9622B",
">. c #AD6830",
",. c #C56025",
"<. c #CF6B27",
"1. c #CF6C27",
"2. c #CF6F28",
"3. c #D06F28",
"4. c #D07028",
"5. c #D07329",
"6. c #D27A2B",
"7. c #D27B2B",
"8. c #C18C38",
"9. c #C39F37",
"0. c #E9882C",
"q. c #ED8E2E",
"w. c #EC8F2F",
"e. c #EE8E2E",
"r. c #EF9630",
"t. c #F19D32",
"y. c #C4A037",
"u. c #D0A637",
"i. c #D1A738",
"p. c #DEB63A",
"a. c #DFB63A",
"s. c #E7A335",
"d. c #E9A535",
"f. c #EBA936",
"g. c #F2A534",
"h. c #F4AC36",
"j. c #F5B438",
"k. c #F7BB3A",
"l. c #FACB3E",
/* pixels */
"                  - r r &                         r r r r r r r r r %     & r r =                   ",
"                  - r r &                         r r r r r r r r r %     & r r =                   ",
"                  - r r &                         r r r r r r r r r %     & r r =                   ",
"      : w w w w w e r r e w w w w w w w w w w w w r r r r r r r r r e w w e r r e w w w w w t K K K ",
"      w r r r r r r r r r r r r r r r r r r r r r r r r r r r r r r r r r r r r r r r r r r p P P P ",
"      w r r r r r r r r r r r r r r r r r r r r r r r r r r r r r r r r r r r r r r r r r r p P P P ",
": : : r r r r r r r r r r r r r r r r r r r r r r r r r r r r r r r r r r r r r r r r r r r p P P P ",
"r r r r r r r r r r r r r r r r r r r r r r r r r r r r r r r r r r r r r r r r r r r r r r p P P P ",
"r r r r r r r r r r r r r r r r r r r r r r r r r r r r r r r r r r r r r r r r r r r r r r p P P P ",
"r r r r r r r r r r r r r r r r r r r r r r r r r r r r r r r r r r r r r r r r r r r r r r p P P P ",
"r r r r r r r r r r r r r r r r r r r r r r r r r r r r r r r r r r r r r r r r r r r r r r p P P P ",
"r r r r r r r r r r r r r r r r r r r r r r r r r r r r r r r r r r r r r r r r r r r r r r p P P P ",
"& & & e r r r r r r r r r r r r r r r r r r r r r r r r r r r r r r r r r r r r r r r r r r p P P P ",
"      w r r r r r r r r r r r r r r r r r r r r r r r r r r r r r r r r r r r r r r r r r r p P P P ",
"      w r r r r r r r r r r r r r r r r r r r r r r r r r r r r r r r r r r r r r r r r r r p P P P ",
"% % % e r r r r r r r r r r r r r r r r r r r r r r r r r r r r r r r r r r r r r r r r r r p P P P ",
"r r r r r r r r r r r r r r r r e ; ; w r r r r r r r r r r w ; ; e r r r r r r r r r r r r p P P P ",
"r r r r r r r r r r r r r r r r ;     & r r r r r r r r r r &     : r r r r r r r r r r r r p P P P ",
"; ; ; e r r r r r r r r r r . . V a.c < . . . . . . . . . . < c p.B . . r r r r r r r r r r p J J J ",
"      w r r r r r r r r r r   C ;.h.~ E } } } } } } } } } } E ! h.-.C   r r r r r r r r r r r r r r ",
"      w r r r r r r r r r r   #.w.r._ :.0.0.0.0.0.0.0.0.0.0.:._ r.0.#.  r r r r r r r r r r r r r r ",
"      w r r r r r r r r r r   T 6.l.M ) ,.,.,.,.,.,.,.,.,.,.) N l.7.R   r r r r r r r r r r r i i i ",
"      w r r r r r r r r r r   T 4.t.Q O.,.,.,.,.,.,.,.,.,.,.O.` t.3.R   r r r r r r r r r r p P P P ",
"      w r r r r r r r r r r   T 5.g.^ o.,.,.,.,.,.,.,.,.,.,.o./ g.2.R   r r r r r r r r r r p P P P ",
"      w r r r r r r r r r r   T 6.l.M ) ,.,.,.,.,.,.,.,.,.,.) N l.7.R   r r r r r r r r r r p P P P ",
"      w r r r r r r r r r r   T 1.e.] +.,.,.[ b a a b { ,.,.+.] e.<.R   r r r r r r r r r r r r r r ",
"      w r r r r r r r r r r   %.d.j.U >.s.s.( ..8.8. .| s.s.>.U j.f.$.  r r r r r r r r r r r r r r ",
"      w r r r r r r r r r r   =.u.k.m &.9.9.A X.k.l.*.Z y.y.&.Y k.i.@.  r r r r r r r r r r r r r r ",
"w w w r r r r r r r r r r r     q q.] 0     5 ' e.l.*.3     0 ] q.q     r r r r r r r r r r p L L L ",
"r r r r r r r r r r r r r r   , 2 $ X 1 6 6 O @ $ * # + 6 6 1 X $ 9 ,   r r r r r r r r r r p P P P ",
"r r r r r r r r r r r r r r   8 h > > 7 n n 4 > > > > 4 n n 7 > > g 8   r r r r r r r r r r p P P P ",
"r r r r r r r r r r r r r r   x I f f v W W z f f f f l W W v f f b x   r r r r r r r r r r p P P P ",
"r r r r r r r r r r r r r r   2 k W W W W W W W W W W W W W W W W j 2   r r r r r r r r r r p P P P ",
"r r r r r r r r r r r r r r   2 d k k k k k k k k k k k k k k k k s 2   r r r r r r r r r r p P P P ",
"% % % e r r r r r r r r r r   + 2 2 2 2 2 2 2 2 2 2 2 2 2 2 2 2 2 2 +   r r r r r r r r r r u G G G ",
"      w r r r r r r r r r r                                             r r r r r r r r r r r r r r ",
"      w r r r r r r r r r r r r r r r r r r r r r r r r r r r r r r r r r r r r r r r r r r r r r r ",
"      w r r r r r r r r r r r r r r r r r r r r r r r r r r r r r r r r r r r r r r r r r r r r r r ",
"      w r r r r r r r r r r r r r r r r r r r r r r r r r r r r r r r r r r r r r r r r r r r r r r ",
"      w r r r r r r r r r r r r r r r r r r r r r r r r r r r r r r r r r r r r r r r r r r r r r r ",
"      w r r r r r r r r r r r r r r r r r r r r r r r r r r r r r r r r r r r r r r r r r r u D D D ",
"      w r r r r r r r r r r r r r r r r r r r r r r r r r r r r r r r r r r r r r r r r r r p P P P ",
"      w r r r r r r r r r r r r r r r r r r r r r r r r r r r r r r r r r r r r r r r r r r p P P P ",
"      w r r r r r r r r r r r r r r r r r r r r r r r r r r r r r r r r r r r r r r r r r r p P P P ",
"      w r r r r r r r r r r r r r r r r r r r r r r r r r r r r r r r r r r r r r r r r r r p P P P ",
"      w r r r r r r r r r r r r r r r r r r r r r r r r r r r r r r r r r r r r r r r r r r p P P P ",
"o o o t i i i i i y r r r r r y i i y r r r i i i i i i i i i i i i y r r y i i i i i i i i S P P P ",
"P P P P P P P P P F r r r r r F P P J r r p P P P P P P P P P P P P F r r H P P P P P P P P P P P P ",
"P P P P P P P P P F r r r r r F P P J r r p P P P P P P P P P P P P F r r H P P P P P P P P P P P P ",
"P P P P P P P P P F r r r r r F P P J r r p P P P P P P P P P P P P F r r H P P P P P P P P P P P P "
};
