/* XPM */
static char *result[] = {
/* columns rows colors chars-per-pixel */
"50 50 92 1 ",
"  c #222222",
". c #222322",
"X c #292626",
"o c #292D24",
"O c #242728",
"+ c #242629",
"@ c #242A29",
"# c #262B2F",
"$ c #2B2828",
"% c #2C2928",
"& c #302B2B",
"* c #352E2E",
"= c #27322F",
"- c #313926",
"; c #273330",
": c #293B36",
"> c #29353C",
", c #2A353C",
"< c #2A393C",
"1 c #393131",
"2 c #3A3131",
"3 c #3E3434",
"4 c #3E3534",
"5 c #303F3B",
"6 c #433837",
"7 c #463938",
"8 c #483B3A",
"9 c #493C3A",
"0 c #4B3D3B",
"q c #4B3D3C",
"w c #4D3F3D",
"e c #4E3F3D",
"r c #3A4D2E",
"t c #3F5029",
"y c #3F5129",
"u c #2B433D",
"i c #2C433D",
"p c #304638",
"a c #4E672D",
"s c #5C7E30",
"d c #30544B",
"f c #314955",
"g c #3F6B4F",
"h c #356459",
"j c #395C6F",
"k c #376064",
"l c #534340",
"z c #594743",
"x c #594744",
"c c #5A4744",
"v c #5F4B47",
"b c #6B534E",
"n c #6C544E",
"m c #715851",
"M c #775C55",
"N c #497145",
"B c #447B5C",
"V c #407B7F",
"C c #618F3E",
"Z c #79AC37",
"A c #7AAC37",
"S c #3F8574",
"D c #3F8674",
"F c #4E8252",
"G c #5D9956",
"H c #669F4C",
"J c #7FBD45",
"K c #6BB05A",
"L c #4E8F65",
"P c #578A76",
"I c #589478",
"U c #55A879",
"Y c #5CB37B",
"T c #5DB37B",
"R c #5CB47C",
"E c #5DB47C",
"W c #64B16A",
"Q c #70C067",
"! c #81B73A",
"~ c #88C33B",
"^ c #97D93F",
"/ c #97DA3F",
"( c #8DD349",
") c #88D04E",
"_ c #83CC53",
"` c #83CD53",
"' c #417089",
"] c #437D8B",
"[ c #437E8B",
"{ c #458B8C",
"} c #49A690",
"| c #49A790",
/* pixels */
"         288*            888888888&  *881         ",
"         288*            888888888&  *881         ",
"         288*            888888888&  *881         ",
"   46666678876666666666668888888887667887666669nnn",
"   6888888888888888888888888888888888888888888eMMM",
"   6888888888888888888888888888888888888888888eMMM",
"4448888888888888888888888888888888888888888888eMMM",
"8888888888888888888888888888888888888888888888eMMM",
"8888888888888888888888888888888888888888888888eMMM",
"8888888888888888888888888888888888888888888888eMMM",
"8888888888888888888888888888888888888888888888eMMM",
"8888888888888888888888888888888888888888888888eMMM",
"***7888888888888888888888888888888888888888888eMMM",
"   6888888888888888888888888888888888888888888eMMM",
"   6888888888888888888888888888888888888888888eMMM",
"&&&7888888888888888888888888888888888888888888eMMM",
"888888888888888888$$$$$$$$$$$$$$88888888888888eMMM",
"888888888888888888              88888888888888eMMM",
"3337888888888888$ 'P///////////^ $888888888888ebbb",
"   6888888888888$ 'P/(```/////)_ $8888888888888888",
"   6888888888888$ 'P/Q|||/////R} $8888888888888888",
"   6888888888888$ 'P/Hhhh/////Fh $8888888888888www",
"   6888888888888$ 'P/s   ////^t  $888888888888eMMM",
"   6888888888888$ 'P/s   ////^t  $888888888888eMMM",
"   6888888888888$ 'P/s   ////^t  $888888888888eMMM",
"   6888888888888$ 'P/Q|||/////R} $8888888888888888",
"   6888888888863X ]I/KSUYZ!/~ZWYu53688888888888888",
"   68888888888*   |T/s A/ y/s.A/|S *88888888888888",
"6668888888886*$   hBQN as y/s GQhd $*688888888emmm",
"8888888888883      u|h    y/s D}     488888888eMMM",
"8888888888883      @i;    pEg :i     488888888eMMM",
"8888888888883    .        u|h        488888888eMMM",
"88888888888     D|     D|              8888888eMMM",
"88888888888 +># D| @u= LY @u= :u @u=   8888888eMMM",
"&&&78888888 ,'f D| u|h A/ u|h D} u|h   8888888qccc",
"   68888888 ,'jfV{fk|DhJ/sCQHsKQsCQHs- 88888888888",
"   68888888 ,''''''[|||_////////////^t 88888888888",
"   68888888 O,,,,,,<iiirttttttttttttto 88888888888",
"   68888888                            88888888888",
"   68888888888888888888888888888888888888888888888",
"   6888888888888888888888888888888888888888888qzzz",
"   6888888888888888888888888888888888888888888eMMM",
"   6888888888888888888888888888888888888888888eMMM",
"   6888888888888888888888888888888888888888888eMMM",
"   6888888888888888888888888888888888888888888eMMM",
"   6888888888888888888888888888888888888888888eMMM",
"%%%9wwwww0888880ww0888wwwwwwwwwwww0880wwwwwwwwlMMM",
"MMMMMMMMMx88888xMMb88eMMMMMMMMMMMMx88vMMMMMMMMMMMM",
"MMMMMMMMMx88888xMMb88eMMMMMMMMMMMMx88vMMMMMMMMMMMM",
"MMMMMMMMMx88888xMMb88eMMMMMMMMMMMMx88vMMMMMMMMMMMM"
};
