/* XPM */
static char *result[] = {
/* columns rows colors chars-per-pixel */
"50 50 193 2 ",
"   c #111111",
".  c #121111",
"X  c #222222",
"o  c #232222",
"O  c #222323",
"+  c #232323",
"@  c #2C2928",
"#  c #302B2B",
"$  c #372D2C",
"%  c #352E2E",
"&  c #382E2D",
"*  c #392F2E",
"=  c #3A2F2E",
"-  c #3A2F2F",
";  c #3A302F",
":  c #3B302F",
">  c #393131",
",  c #3A3030",
"<  c #3B3030",
"1  c #3B3130",
"2  c #3A3131",
"3  c #3C3130",
"4  c #3C3131",
"5  c #3D3131",
"6  c #3C3231",
"7  c #3D3231",
"8  c #3D3232",
"9  c #3E3232",
"0  c #3E3332",
"q  c #3F3433",
"w  c #3E3434",
"e  c #3E3534",
"r  c #403433",
"t  c #403434",
"y  c #403534",
"u  c #413534",
"i  c #413535",
"p  c #413635",
"a  c #423635",
"s  c #423636",
"d  c #433736",
"f  c #433837",
"g  c #443836",
"h  c #443837",
"j  c #453837",
"k  c #453838",
"l  c #453938",
"z  c #463938",
"x  c #463939",
"c  c #463A39",
"v  c #473A39",
"b  c #473B39",
"n  c #473A3A",
"m  c #473B3A",
"M  c #483B3A",
"N  c #493B3A",
"B  c #493C3A",
"V  c #483C3B",
"C  c #493C3B",
"Z  c #4A3C3A",
"A  c #4A3D3B",
"S  c #4B3D3B",
"D  c #4B3D3C",
"F  c #4C3E3C",
"G  c #4C3E3D",
"H  c #4D3F3D",
"J  c #4E3F3D",
"K  c #4D3F3E",
"L  c #62232F",
"P  c #4D403E",
"I  c #4E403E",
"U  c #4F403E",
"Y  c #534340",
"T  c #584643",
"R  c #594743",
"E  c #584744",
"W  c #594744",
"Q  c #5A4744",
"!  c #594845",
"~  c #5A4845",
"^  c #5D4A46",
"/  c #5F4B47",
"(  c #604C48",
")  c #69524D",
"_  c #6B534E",
"`  c #6B544E",
"'  c #6C544E",
"]  c #715851",
"[  c #745A53",
"{  c #755A53",
"}  c #745A54",
"|  c #755A54",
" . c #755B54",
".. c #765B54",
"X. c #775C55",
"o. c #785D56",
"O. c #8F4029",
"+. c #339305",
"@. c #339406",
"#. c #339506",
"$. c #349606",
"%. c #359606",
"&. c #349706",
"*. c #359706",
"=. c #349607",
"-. c #349806",
";. c #359806",
":. c #359906",
">. c #369907",
",. c #359A06",
"<. c #359B06",
"1. c #369A06",
"2. c #369B06",
"3. c #369B07",
"4. c #369C06",
"5. c #369D06",
"6. c #379D06",
"7. c #369C07",
"8. c #379C07",
"9. c #379F06",
"0. c #379F07",
"q. c #38A006",
"w. c #38A106",
"e. c #38A007",
"r. c #38A107",
"t. c #38A206",
"y. c #39A206",
"u. c #38A306",
"i. c #38A207",
"p. c #39A207",
"a. c #39A307",
"s. c #39A506",
"d. c #3AA506",
"f. c #3AA706",
"g. c #3AA607",
"h. c #3AA806",
"j. c #3AA906",
"k. c #3AA807",
"l. c #3BA907",
"z. c #3AAA06",
"x. c #3BAA06",
"c. c #3BAB06",
"v. c #3BAA07",
"b. c #3BAB07",
"n. c #3CAB07",
"m. c #3BAC06",
"M. c #3CAD06",
"N. c #3CAC07",
"B. c #3CAD07",
"V. c #3CAE07",
"C. c #3DB007",
"Z. c #3DB107",
"A. c #3DB207",
"S. c #3DB307",
"D. c #3EB207",
"F. c #3EB307",
"G. c #3EB407",
"H. c #3FB407",
"J. c #3FB507",
"K. c #3FB707",
"L. c #3DB008",
"P. c #3EB108",
"I. c #3DB208",
"U. c #3EB208",
"Y. c #3EB308",
"T. c #3EB408",
"R. c #3FB408",
"E. c #3FB508",
"W. c #3FB608",
"Q. c #40B807",
"!. c #40B907",
"~. c #40BA07",
"^. c #40BB07",
"/. c #40BC07",
"(. c #41BC07",
"). c #41BD07",
"_. c #40B808",
"`. c #40B908",
"'. c #40BA08",
"]. c #41BA08",
"[. c #41BB08",
"{. c #41BC08",
"}. c #41BD08",
"|. c #42BD08",
" X c #A98C7A",
".X c #A98D7A",
"XX c #AA8D7A",
"oX c #72D5CD",
"OX c #72D6CE",
"+X c #D2BEA8",
"@X c #D3BFA9",
"#X c #FCF6EC",
"$X c #FDF7ED",
/* pixels */
"X X X X X X X X X 2 M M % X X X X X X X X X X X X M M M M M M M M M # X X % M M > X X X X X X X X X ",
"X X X X X X X X X 2 M M % X X X X X X X X X X X X M M M M M M M M M # X X % M M > X X X X X X X X X ",
"X X X X X X X X X 2 M M % X X X X X X X X X X X X M M M M M M M M M # X X % M M > X X X X X X X X X ",
"X X X e f f f f f z M M z f f f f f f f f f f f f M M M M M M M M M z f f z M M z f f f f f B ' ' ' ",
"X X X f M M M M M M M M M M M M M M M M M M M M M M M M M M M M M M M M M M M M M M M M M M J X.X.X.",
"X X X f M M M M M M M M M M M M M M M M M M M M M M M M M M M M M M M M M M M M M M M M M M J X.X.X.",
"e e e M M M M M M M M M M M M M M M M M M M M M M M M M M M M M M M M M M M M M M M M M M M J X.X.X.",
"M M M M M M M M M M M M M M M M M M M M M M M M M M M M M M M M M M M M M M M M M M M M M M J X.X.X.",
"M M M M M M M M M M M M M M M M M M M M M M M M M M M M M M M M M M M M M M M M M M M M M M J X.X.X.",
"M M M M M M M M M M M X XXXXX @X@X@XX X X X X X X X X X X X X + @X@X+Xo XX.XX M M M M M M M J X.X.X.",
"M M M M M M M M M M X XXXX@X@XX X X X.X.X X.X.X.X.X.X.X.X.X X.X.X X + @X@XXX.XX V M M M M M J X.X.X.",
"M M M M M M M C M X XXXX@XX X X.X.X.M M X M M M M M M M M X M M X.X.X.X + @XXX.XX M M M M M J X.X.X.",
"% % % z M M M M v XXX @XX X.X.X M M X X X X X X X X X X X X X X M M X X.X.+ +Xo XXv M M M M J X.X.X.",
"X X X f M M m v l XX@XX M M M X X X t.w.w.t.t.a.y.t.w.t.y.p.p.q.X X X M M M + @XXXc m V M M J X.X.X.",
"X X X f M M M v h @XX X M M X   :.1.1.2.2.8.4.8.8.4.4.4.4.2.2.3.:.>.  X M M X + +Xh v V V M J X.X.X.",
"# # # z M M v c d @XX X.X X L   #.*.:.1.3.<.4.4.4.<.4.7.4.3.<.,.;.&.#.+.X X X.+ +Xd z M M M J X.X.X.",
"M M M M M m v k a X M M X.X O.  &.,.4.0.e.r.w.w.w.r.i.r.r.r.0.5.3.-.#.@.X X.M M X a k n C M J X.X.X.",
"M M M M M M M l a X M M X   O.  <.r.s.k.j.c.c.n.x.z.c.x.v.z.j.g.u.9.,.%.  X M M X p j v C M J X.X.X.",
"w w w z M M v k a X X X X O.O.  r.h.B.I.U.Y.F.F.T.T.F.Y.Y.Y.Z.C.m.f.t.2.$.X X X X u h c V M J _ _ _ ",
"X X X f M V v j p X.X.X   O.L   s.M.G.K.!.!.`.`.!.!.'.!.!.`._.K.R.L.v.a.2.=.X X.X.a h m M M M M M M ",
"X X X f M M M k a M M X O.O.L   h.Z.K.[.(.(.}.(.}.).(.(.(.(.(.^.!.E.P.v.q.:.X M M u h v M M M M M M ",
"X X X f M M v l s M X X X O.L   x.D.Q.(.).).).).).).).).).).).(.|.].W.V.s.6.X M M a h c C M M H H H ",
"X X X f M V v j p M X OXX X L   b.G.!.}.).).).).).).).).).).).).).{.Q.A.c.w.X M M u l m M M J X.X.X.",
"X X X f M M v k a X X OX$XX L   c.F.!.}.).).).).).).).).).).).).).}.[.J.V.d.X X X i j v M M J X.X.X.",
"X X X f M M v j s X.X OXX X O.  c.F.!.(.).).).).).).).).).).).).).).{._.D.l.X X.X.i h m M M J X.X.X.",
"X X X f M M v k p M X X X   O.  c.Y.!.}.).).).).).).).).).).).).).).}.'.G.c.X M M a h n M M M M M M ",
"X X X f M M v j i M M X   O.O.  b.F.!.(.).).).).).).).).).).).).).).).[.R.n.X M M a l n M M M M M M ",
"X X X f M m v j a X X X O.O.O.  b.Y.!.).).).).).).).).).).).).).).).).!.G.c.X X X a j m M M M M M M ",
"f f f M M M m k a X.X.X L O.L   n.F.`.(.).).).).).).).).).).).).).).).'.R.c.X X.X.a j v M M J ] ] ] ",
"M M M M M M c j a M M X L O.L   n.F.!.(.).).).).).).).).).).).).).).).~.F.N.X M M i h n M M J X.X.X.",
"M M M M M M v k p M X O X O.L   b.F.!.|.).).).).).).).).).).).).).).).!.G.N.X M M a h v M M J X.X.X.",
"M M M M M M v j s X X OX+ X L   c.T.`.}.).).).).).).).).).).).).).).).'.H.N.X X X a j c M M J X.X.X.",
"M M M M M M v k i X.X OX#XX L   c.G.!./.).).).).).).).).).).).).).).(.].R.N.X X.X.a j m M M J X.X.X.",
"M M M M M V c l p M X oXX X L   c.S.!.).).).).).).).).).).).).).).).(.!.G.n.X M M i h n C M J X.X.X.",
"# # # z M M m k p M X X X O.L   b.T.`./.).).).).).).).).).).).).).).).].E.n.X M M a j n M M D Q Q Q ",
"X X X f M M v k i M M X O.O.O.  c.Y.!.}.).).).).).).).).).).).).).).(.!.E.n.X M M a l v M M M M M M ",
"X X X f M M v k p X X X O.L O.  x.F._.[.(.(.(.(.).).).).).).).).).).(.!.H.c.X X X a h n C M M M M M ",
"X X X f M M v j p X.X.X X o o o o o X o o o o X X X X X X X X X X X X X X X X X.X.a h m M M M M M M ",
"X X X f M v v k p M M X.X .XXXXXXXXX  XXXXXXXX  XX X. XXXXXX X. XXXXXXXX.XX X.M M i h n M M M M M M ",
"X X X f M M M z p M M M X.X M M M M X M M M M X M M X M M M M X M M M M X X.M M M a h v M M M M M M ",
"X X X f M v v j a X X X X X X X X X X X X X X X X X X X X X X X X X X X X X X X X u h n M M D R R R ",
"X X X f M M v l a 0 , & $ $ & = < 5 7 0 0 0 0 0 0 0 7 0 0 0 0 0 0 0 0 9 3 3 1 < 0 u h v M M J X.X.X.",
"X X X f M M v l a 0 < * & & * * - - < : 3 1 < < < < : : 1 < 1 < < : 1 ; ; ; = 1 0 a l v M M J X.X.X.",
"X X X f M M M z d r 7 < ; * ; ; ; < 1 1 1 1 1 1 1 1 1 1 1 1 1 < 1 1 1 < 1 : < 7 q d k n C M J X.X.X.",
"X X X f M M M x h i t 9 7 6 7 3 7 9 7 8 9 7 7 7 7 7 7 8 7 4 8 8 7 7 8 7 7 9 0 q a d z M M M J X.X.X.",
"X X X f M M m v l d a u y u u y y y u u u u y y r y u u y y y y u u u u u u u a h l n m M M J X.X.X.",
"@ @ @ B H I K P G N l h h h h v B A v g h h A B Z B A B A A A B A B v h h b A S D G H H I H Y X.X.X.",
"X.X.X.X.X.X.X.X.X.E m v c c m T } | ) v v F { | | } | [ [ | [ [  .| T c c ^ [ | ..X.X.X.X.X.X.X.X.X.",
"X.X.X.X.X.X.X.X.X.~ M M V M M ~ X.X.` V M U X.X.X.X.X.X.X.o.X.X.X.X.! V M ( X.X.X.o.o.X.X.X.X.X.X.X.",
"X.X.X.X.X.X.X.X.X.W M M M M M W X.X._ M M J X.X.X.X.X.X.X.X.X.X.X.X.W M M / X.X.X.X.X.X.X.X.X.X.X.X."
};
