/* XPM */
static char *result[] = {
/* columns rows colors chars-per-pixel */
"50 50 114 2 ",
"   c #222222",
".  c #292323",
"X  c #2C2622",
"o  c #2B2828",
"O  c #2C2928",
"+  c #2D2A29",
"@  c #362923",
"#  c #3D2923",
"$  c #3D2A24",
"%  c #302B2B",
"&  c #332D2C",
"*  c #332D2D",
"=  c #352E2E",
"-  c #3A332F",
";  c #393131",
":  c #3A3131",
">  c #393231",
",  c #3E3434",
"<  c #3E3534",
"1  c #3D3C3C",
"2  c #403226",
"3  c #4A3123",
"4  c #4F3B29",
"5  c #433837",
"6  c #463938",
"7  c #463939",
"8  c #423F3E",
"9  c #483B3A",
"0  c #493C3A",
"q  c #4B3D3B",
"w  c #4B3D3C",
"e  c #4D3F3D",
"r  c #4E3F3D",
"t  c #5A4028",
"y  c #6E4A27",
"u  c #7D5C34",
"i  c #4D4C4A",
"p  c #534340",
"a  c #594743",
"s  c #594744",
"d  c #5A4744",
"f  c #5F4B47",
"g  c #524B48",
"h  c #524F4D",
"j  c #585754",
"k  c #6B534E",
"l  c #6C544E",
"z  c #715851",
"x  c #775C55",
"c  c #6D6965",
"v  c #8F4029",
"b  c #964428",
"n  c #BA732B",
"m  c #C46025",
"M  c #C56025",
"N  c #827C6F",
"B  c #D3802C",
"V  c #D4802C",
"C  c #EE8E2E",
"Z  c #EF9630",
"A  c #F09931",
"S  c #F09D32",
"D  c #F19D32",
"F  c #F3A835",
"G  c #F5B037",
"H  c #F7BB3A",
"J  c #F7BC3A",
"K  c #F8C33C",
"L  c #FACB3E",
"P  c #FACB3F",
"I  c #8E8772",
"U  c #F6BA44",
"Y  c #D8A169",
"T  c #F5BD6D",
"R  c #FAD154",
"E  c #FBD66A",
"W  c #F8CC7C",
"Q  c #FBD875",
"!  c #FBDB7F",
"~  c #FADC7F",
"^  c #FBDC7F",
"/  c #AB9990",
"(  c #BCA38F",
")  c #B9A298",
"_  c #AAA6A0",
"`  c #AAA7A0",
"'  c #CDAE97",
"]  c #D4B2A4",
"[  c #E7BDA1",
"{  c #D8CB86",
"}  c #FBDE8A",
"|  c #FBE195",
" . c #C5C1BA",
".. c #C6C2BA",
"X. c #F9DCBD",
"o. c #F9DDBD",
"O. c #FBE6AB",
"+. c #FCE5AA",
"@. c #FCE6AB",
"#. c #FAE0BE",
"$. c #B6CBCF",
"%. c #BED0D3",
"&. c #C7D1CF",
"*. c #E0DBD2",
"=. c #E1DCD3",
"-. c #FCEBC1",
";. c #FCECC1",
":. c #FDF1D6",
">. c #FDF1D7",
",. c #FCF2D7",
"<. c #F8F1E0",
"1. c #F4F1E9",
"2. c #FCF6EC",
"3. c #FDF7ED",
/* pixels */
"                  : 9 9 =                         9 9 9 9 9 9 9 9 9 %     = 9 9 ;                   ",
"                  : 9 9 =                         9 9 9 9 9 9 9 9 9 %     = 9 9 ;                   ",
"                  : 9 9 =                         9 9 9 9 9 9 9 9 9 %     = 9 9 ;                   ",
"      < 5 5 5 5 5 6 9 9 6 5 5 5 5 5 5 5 5 5 5 5 5 9 9 9 9 9 9 9 9 9 6 5 5 6 9 9 6 5 5 5 5 5 0 l l l ",
"      5 9 9 9 9 9 9 9 9 9 9 9 9 9 9 9 9 9 9 9 9 9 9 9 9 9 9 9 9 9 9 9 9 9 9 9 9 9 9 9 9 9 9 r x x x ",
"      5 9 9 9 9 9 9 9 9 9 9 9 9 9 9 9 9 9 9 9 9 9 9 9 9 9 9 9 9 9 9 9 9 9 9 9 9 9 9 9 9 9 9 r x x x ",
"< < < 9 9 9 9 9 9 9 9 9 9 9 9 9 9 9 9 9 9 9 9 9 9 9 9 9 9 9 9 9 9 9 9 9 9 9 9 9 9 9 9 9 9 9 r x x x ",
"9 9 9 9 9 9 9 9 9 9 9 9 9 9 9 9 9 9 9 9 9 9 9 9 9 9 9 9 9 9 9 9 9 9 9 9 9 9 9 9 9 9 9 9 9 9 r x x x ",
"9 9 9 9 9 9 9 9 9 9 9 9 9 9 9 9 9 9 9 9 9 9 9 9 9 9 9 9 9 9 9 9 9 9 9 9 9 9 9 9 9 9 9 9 9 9 r x x x ",
"9 9 9 9 9 9 9 9 9 9 9 9 9 9 9 9 9 9 9 9 9 9 9 9 9 9 9 9 9 9 9 9 9 9 9 9 9 9 9 9 9 9 9 9 9 9 r x x x ",
"9 9 9 9 9 9 9 9 9 9 9 9 9 9 9 9 9 9 9 9 9 9 9 9 9 9 9 9 9 9 9 9 9 9 9 9 9 9 9 9 9 9 9 9 9 9 r x x x ",
"9 9 9 9 9 9 9 9 9 9 9 9 9 9 9 9 9 9 9 9 9 9 9 9 9 9 9 9 9 9 9 9 9 9 9 9 9 9 9 9 9 9 9 9 9 9 r x x x ",
"= = = 6 9 9 9 9 9 9 9 9 9 9 9 9 9 9 9 9 9 9 9 9 9 9 9 9 9 9 9 9 9 9 9 9 9 9 9 9 9 9 9 9 9 9 r x x x ",
"      5 9 9 9 9 9 9 9 9 9 9 9 9 9 9 9 9 9 9 9 9 9 9 9 9 9 9 9 9 9 9 9 9 9 9 9 9 9 9 9 9 9 9 r x x x ",
"      5 9 9 9 9 9 9 9 9 9 9 9 9 9 9 9 9 9 9 9 9 9 9 9 9 9 9 9 9 9 9 9 9 9 9 9 9 9 9 9 9 9 9 r x x x ",
"% % % 6 9 9 9 9 9 9 9 9 9 9 9 9 9 9 9 9 9 9 9 9 9 9 9 9 9 9 9 9 9 9 9 9 9 9 9 9 9 9 9 9 9 9 r x x x ",
"9 9 9 9 9 9 9 9 9 9 9 9 9 9 9 9 9 9 9 9 9 9 9 9 9 9 9 9 9 9 9 9 9 9 9 9 9 9 9 9 9 9 9 9 9 9 r x x x ",
"9 9 9 9 9 9 9 9 9 9 9 9 9 9 9 9 9 9 9 9 9 9 9 9 9 9 9 9 9 9 9 9 9 9 9 9 9 9 9 9 9 9 9 9 9 9 r x x x ",
", , , 6 9 9 9 9 9 9 9 9 9 9 9 9 9 9 9 9 9 9 9 9 9 9 9 9 9 9 9 9 9 9 9 9 9 9 9 9 9 9 9 9 9 9 r k k k ",
"      5 9 9 9 9 9 9 9 9 9 9 9 9 9 9 9 & o o o o o o o o o o o * 9 9 9 9 9 9 9 9 9 9 9 9 9 9 9 9 9 9 ",
"      5 9 9 9 9 9 9 9 9 9 9 9 9 9 9 9 o . # # # 3 3 3 3 3 3 X o 9 9 9 9 9 9 9 9 9 9 9 9 9 9 9 9 9 9 ",
"      5 9 9 9 9 9 9 9 9 9 9 9 9 9 9 9 o $ v v b M M M M M m @ o 9 9 9 9 9 9 9 9 9 9 9 9 9 9 9 e e e ",
"      5 9 9 9 9 9 9 9 9 9 9 9 9 9 9 9 o g ] ) / ( ( ( ( ' [ - o 9 9 9 9 9 9 9 9 9 9 9 9 9 9 r x x x ",
"      5 9 9 9 9 9 9 9 9 9 9 9 9 9 9 9 % i =.&.%.$.$.$.%.&.*.8 + 9 9 9 9 9 9 9 9 9 9 9 9 9 9 r x x x ",
"      5 9 9 9 9 9 9 9 9 9 9 9 9 9 9 9 9 ,   ` 1.$.$.$.3._   5 9 9 9 9 9 9 9 9 9 9 9 9 9 9 9 r x x x ",
"      5 9 9 9 9 9 9 9 9 9 9 9 9 9 9 9 9 ,   ` <.{ { { 3._   5 9 9 9 9 9 9 9 9 9 9 9 9 9 9 9 9 9 9 9 ",
"      5 9 9 9 9 9 9 9 9 9 9 9 9 9 9 9 9 ,   ` :.L L P 3._   5 9 9 9 9 9 9 9 9 9 9 9 9 9 9 9 9 9 9 9 ",
"      5 9 9 9 9 9 9 9 9 9 9 9 9 9 9 9 o j 3.! R 3.| L L ^ 2.1 o 9 9 9 9 9 9 9 9 9 9 9 9 9 9 9 9 9 9 ",
"5 5 5 9 9 9 9 9 9 9 9 9 9 9 9 9 9 5 ; c I @.| ~ @.Q L L E +.u t ; 6 9 9 9 9 9 9 9 9 9 9 9 9 r z z z ",
"9 9 9 9 9 9 9 9 9 9 9 9 9 9 9 9 9 ;   ..;.L O.>.L L L L L L Z n   < 9 9 9 9 9 9 9 9 9 9 9 9 r x x x ",
"9 9 9 9 9 9 9 9 9 9 9 9 9 9 9 9 9 ;   ..X.Z U E ,.} L Z F L Z n   < 9 9 9 9 9 9 9 9 9 9 9 9 r x x x ",
"9 9 9 9 9 9 9 9 9 9 9 9 9 9 9 9 9 ;   ..#.D J R o.W H D G L Z n   < 9 9 9 9 9 9 9 9 9 9 9 9 r x x x ",
"9 9 9 9 9 9 9 9 9 9 9 9 9 9 9 9 9 ;    .-.P L K C C C L L L Z n   < 9 9 9 9 9 9 9 9 9 9 9 9 r x x x ",
"9 9 9 9 9 9 9 9 9 9 9 9 9 9 9 9 9 5 < h N ;.T A C C C D D S y 4 < 6 9 9 9 9 9 9 9 9 9 9 9 9 r x x x ",
"% % % 6 9 9 9 9 9 9 9 9 9 9 9 9 9 9 9 % i *.Y B V V V V V B 2 + 9 9 9 9 9 9 9 9 9 9 9 9 9 9 w d d d ",
"      5 9 9 9 9 9 9 9 9 9 9 9 9 9 9 9 9 ,                   5 9 9 9 9 9 9 9 9 9 9 9 9 9 9 9 9 9 9 9 ",
"      5 9 9 9 9 9 9 9 9 9 9 9 9 9 9 9 9 7 > > > > > > > > > 6 9 9 9 9 9 9 9 9 9 9 9 9 9 9 9 9 9 9 9 ",
"      5 9 9 9 9 9 9 9 9 9 9 9 9 9 9 9 9 9 9 9 9 9 9 9 9 9 9 9 9 9 9 9 9 9 9 9 9 9 9 9 9 9 9 9 9 9 9 ",
"      5 9 9 9 9 9 9 9 9 9 9 9 9 9 9 9 9 9 9 9 9 9 9 9 9 9 9 9 9 9 9 9 9 9 9 9 9 9 9 9 9 9 9 9 9 9 9 ",
"      5 9 9 9 9 9 9 9 9 9 9 9 9 9 9 9 9 9 9 9 9 9 9 9 9 9 9 9 9 9 9 9 9 9 9 9 9 9 9 9 9 9 9 9 9 9 9 ",
"      5 9 9 9 9 9 9 9 9 9 9 9 9 9 9 9 9 9 9 9 9 9 9 9 9 9 9 9 9 9 9 9 9 9 9 9 9 9 9 9 9 9 9 w a a a ",
"      5 9 9 9 9 9 9 9 9 9 9 9 9 9 9 9 9 9 9 9 9 9 9 9 9 9 9 9 9 9 9 9 9 9 9 9 9 9 9 9 9 9 9 r x x x ",
"      5 9 9 9 9 9 9 9 9 9 9 9 9 9 9 9 9 9 9 9 9 9 9 9 9 9 9 9 9 9 9 9 9 9 9 9 9 9 9 9 9 9 9 r x x x ",
"      5 9 9 9 9 9 9 9 9 9 9 9 9 9 9 9 9 9 9 9 9 9 9 9 9 9 9 9 9 9 9 9 9 9 9 9 9 9 9 9 9 9 9 r x x x ",
"      5 9 9 9 9 9 9 9 9 9 9 9 9 9 9 9 9 9 9 9 9 9 9 9 9 9 9 9 9 9 9 9 9 9 9 9 9 9 9 9 9 9 9 r x x x ",
"      5 9 9 9 9 9 9 9 9 9 9 9 9 9 9 9 9 9 9 9 9 9 9 9 9 9 9 9 9 9 9 9 9 9 9 9 9 9 9 9 9 9 9 r x x x ",
"O O O 0 e e e e e q 9 9 9 9 9 q e e q 9 9 9 e e e e e e e e e e e e q 9 9 q e e e e e e e e p x x x ",
"x x x x x x x x x s 9 9 9 9 9 s x x k 9 9 r x x x x x x x x x x x x s 9 9 f x x x x x x x x x x x x ",
"x x x x x x x x x s 9 9 9 9 9 s x x k 9 9 r x x x x x x x x x x x x s 9 9 f x x x x x x x x x x x x ",
"x x x x x x x x x s 9 9 9 9 9 s x x k 9 9 r x x x x x x x x x x x x s 9 9 f x x x x x x x x x x x x "
};
