/* XPM */
static char *result[] = {
/* columns rows colors chars-per-pixel */
"50 50 25 1 ",
"  c #222222",
". c #2C2928",
"X c #302B2B",
"o c #352E2E",
"O c #393131",
"+ c #3A3131",
"@ c #3E3434",
"# c #3E3534",
"$ c #433837",
"% c #463938",
"& c #483B3A",
"* c #493C3A",
"= c #4B3D3B",
"- c #4B3D3C",
"; c #4D3F3D",
": c #4E3F3D",
"> c #534340",
", c #594743",
"< c #594744",
"1 c #5A4744",
"2 c #5F4B47",
"3 c #6B534E",
"4 c #6C544E",
"5 c #715851",
"6 c #775C55",
/* pixels */
"         +&&o            &&&&&&&&&X  o&&O         ",
"         +&&o            &&&&&&&&&X  o&&O         ",
"         +&&o            &&&&&&&&&X  o&&O         ",
"   #$$$$$%&&%$$$$$$$$$$$$&&&&&&&&&%$$%&&%$$$$$*444",
"   $&&&&&&&&&&&&&&&&&&&&&&&&&&&&&&&&&&&&&&&&&&:666",
"   $&&&&&&&&&&&&&&&&&&&&&&&&&&&&&&&&&&&&&&&&&&:666",
"###&&&&&&&&&&&&&&&&&&&&&&&&&&&&&&&&&&&&&&&&&&&:666",
"&&&&&&&&&&&&&&&&&&&&&&&&&&&&&&&&&&&&&&&&&&&&&&:666",
"&&&&&&&&&&&&&&&&&&&&&&&&&&&&&&&&&&&&&&&&&&&&&&:666",
"&&&&&&&&&&&&&&&&&&&&&&&&&&&&&&&&&&&&&&&&&&&&&&:666",
"&&&&&&&&&&&&&&&&&&&&&&&&&&&&&&&&&&&&&&&&&&&&&&:666",
"&&&&&&&&&&&&&&&&&&&&&&&&&&&&&&&&&&&&&&&&&&&&&&:666",
"ooo%&&&&&&&&&&&&&&&&&&&&&&&&&&&&&&&&&&&&&&&&&&:666",
"   $&&&&&&&&&&&&&&&&&&&&&&&&&&&&&&&&&&&&&&&&&&:666",
"   $&&&&&&&&&&&&&&&&&&&&&&&&&&&&&&&&&&&&&&&&&&:666",
"XXX%&&&&&&&&&&&&&&&&&&&&&&&&&&&&&&&&&&&&&&&&&&:666",
"&&&&&&&&&&&&&&&&&&&&&&&&&&&&&&&&&&&&&&&&&&&&&&:666",
"&&&&&&&&&&&&&&&&&&&&&&&&&&&&&&&&&&&&&&&&&&&&&&:666",
"@@@%&&&&&&&&&&&&&&&&&&&&&&&&&&&&&&&&&&&&&&&&&&:333",
"   $&&&&&&&&&&&&&&&&&&&&&&&&&&&&&&&&&&&&&&&&&&&&&&",
"   $&&&&&&&&&&&&&&&&&&&&&&&&&&&&&&&&&&&&&&&&&&&&&&",
"   $&&&&&&&&&&&&&&&&&&&&&&&&&&&&&&&&&&&&&&&&&&&;;;",
"   $&&&&&&&&&&&&&&&&&&&&&&&&&&&&&&&&&&&&&&&&&&:666",
"   $&&&&&&&&&&&&&&&&&&&&&&&&&&&&&&&&&&&&&&&&&&:666",
"   $&&&&&&&&&&&&&&&&&&&&&&&&&&&&&&&&&&&&&&&&&&:666",
"   $&&&&&&&&&&&&&&&&&&&&&&&&&&&&&&&&&&&&&&&&&&&&&&",
"   $&&&&&&&&&&&&&&&&&&&&&&&&&&&&&&&&&&&&&&&&&&&&&&",
"   $&&&&&&&&&&&&&&&&&&&&&&&&&&&&&&&&&&&&&&&&&&&&&&",
"$$$&&&&&&&&&&&&&&&&&&&&&&&&&&&&&&&&&&&&&&&&&&&:555",
"&&&&&&&&&&&&&&&&&&&&&&&&&&&&&&&&&&&&&&&&&&&&&&:666",
"&&&&&&&&&&&&&&&&&&&&&&&&&&&&&&&&&&&&&&&&&&&&&&:666",
"&&&&&&&&&&&&&&&&&&&&&&&&&&&&&&&&&&&&&&&&&&&&&&:666",
"&&&&&&&&&&&&&&&&&&&&&&&&&&&&&&&&&&&&&&&&&&&&&&:666",
"&&&&&&&&&&&&&&&&&&&&&&&&&&&&&&&&&&&&&&&&&&&&&&:666",
"XXX%&&&&&&&&&&&&&&&&&&&&&&&&&&&&&&&&&&&&&&&&&&-111",
"   $&&&&&&&&&&&&&&&&&&&&&&&&&&&&&&&&&&&&&&&&&&&&&&",
"   $&&&&&&&&&&&&&&&&&&&&&&&&&&&&&&&&&&&&&&&&&&&&&&",
"   $&&&&&&&&&&&&&&&&&&&&&&&&&&&&&&&&&&&&&&&&&&&&&&",
"   $&&&&&&&&&&&&&&&&&&&&&&&&&&&&&&&&&&&&&&&&&&&&&&",
"   $&&&&&&&&&&&&&&&&&&&&&&&&&&&&&&&&&&&&&&&&&&&&&&",
"   $&&&&&&&&&&&&&&&&&&&&&&&&&&&&&&&&&&&&&&&&&&-,,,",
"   $&&&&&&&&&&&&&&&&&&&&&&&&&&&&&&&&&&&&&&&&&&:666",
"   $&&&&&&&&&&&&&&&&&&&&&&&&&&&&&&&&&&&&&&&&&&:666",
"   $&&&&&&&&&&&&&&&&&&&&&&&&&&&&&&&&&&&&&&&&&&:666",
"   $&&&&&&&&&&&&&&&&&&&&&&&&&&&&&&&&&&&&&&&&&&:666",
"   $&&&&&&&&&&&&&&&&&&&&&&&&&&&&&&&&&&&&&&&&&&:666",
"...*;;;;;=&&&&&=;;=&&&;;;;;;;;;;;;=&&=;;;;;;;;>666",
"666666666<&&&&&<663&&:666666666666<&&2666666666666",
"666666666<&&&&&<663&&:666666666666<&&2666666666666",
"666666666<&&&&&<663&&:666666666666<&&2666666666666"
};
