/* XPM */
static char *hero_up1659947059[] = {
/* columns rows colors chars-per-pixel */
"50 50 131 2 ",
"   c black",
".  c #1B1616",
"X  c #2E2016",
"o  c #171226",
"O  c #1F1833",
"+  c #211A34",
"@  c #241C34",
"#  c #231C3B",
"$  c #162633",
"%  c #222222",
"&  c #2D2524",
"*  c #2C2928",
"=  c #312621",
"-  c #302B2B",
";  c #352E2E",
":  c #292135",
">  c #2E2535",
",  c #2E2536",
"<  c #312736",
"1  c #332936",
"2  c #352C37",
"3  c #382E37",
"4  c #3A3131",
"5  c #3E3434",
"6  c #3E3534",
"7  c #3D3238",
"8  c #3E3238",
"9  c #433837",
"0  c #413438",
"q  c #403439",
"w  c #433639",
"e  c #433739",
"r  c #44323C",
"t  c #463938",
"y  c #47393A",
"u  c #483B3A",
"i  c #493C3A",
"p  c #4B3D3B",
"a  c #4B3D3C",
"s  c #4D3F3D",
"d  c #503F3D",
"f  c #262044",
"g  c #2B2445",
"h  c #2B2C47",
"j  c #362D47",
"k  c #382E47",
"l  c #353549",
"z  c #2D2855",
"x  c #312B5E",
"c  c #273350",
"v  c #2C3859",
"b  c #2D3859",
"n  c #3B3570",
"m  c #3C3778",
"M  c #42334B",
"N  c #453A4A",
"B  c #4A3F4A",
"V  c #384764",
"C  c #33486D",
"Z  c #34486D",
"A  c #534340",
"S  c #594744",
"D  c #5A4744",
"F  c #5F4B47",
"G  c #494256",
"H  c #604543",
"J  c #634C41",
"K  c #6A4C45",
"L  c #6A5043",
"P  c #6B534E",
"I  c #6C544E",
"U  c #7E5D48",
"Y  c #684D54",
"T  c #705851",
"R  c #765C55",
"E  c #775C55",
"W  c #565061",
"Q  c #865F4C",
"!  c #8C664C",
"~  c #83605B",
"^  c #976D5F",
"/  c #A27352",
"(  c #AA7B64",
")  c #B58057",
"_  c #433E89",
"`  c #443E89",
"'  c #3A5880",
"]  c #3B688C",
"[  c #42578F",
"{  c #474793",
"}  c #4A469A",
"|  c #416893",
" . c #4B6E95",
".. c #5F6695",
"X. c #514FAC",
"o. c #5956BD",
"O. c #585EBF",
"+. c #4878A6",
"@. c #536FBA",
"#. c #5866C0",
"$. c #5777C4",
"%. c #577FC6",
"&. c #4B80AF",
"*. c #4F87B8",
"=. c #4F88B9",
"-. c #798FA0",
";. c #538CC1",
":. c #5787C8",
">. c #578CC9",
",. c #5690CB",
"<. c #5698CC",
"1. c #619ECE",
"2. c #6BA4D0",
"3. c #8E8690",
"4. c #A9A2A6",
"5. c #C6BFBE",
"6. c #80B0D4",
"7. c #8AB6D6",
"8. c #95BCD8",
"9. c #A9C7DC",
"0. c #AAC8DC",
"q. c #B4CDDE",
"w. c #BED3E0",
"e. c #C9D9E3",
"r. c #D3DFE4",
"t. c #DDE5E6",
"y. c #E7EBE9",
"u. c #E8EBE8",
"i. c #F2F1EB",
"p. c #FCF7ED",
"a. c #FDF7ED",
/* pixels */
"% % % % % % % % % 4 u u ; % % % % % % % % % % % % u u u u u u u u u - % % 3 u u 4 % % % % % % % % % ",
"% % % % % % % % % 4 u u ; % % % % % % % % % % % % u u u u u u u u u - % X ; u u 4 % % % % % % % % % ",
"% % % % % % % % % 4 u u ; % % % % % % % % % % % % u u u u u u u u u - % % ; u u 4 % % % % % % % % % ",
"% % % 6 9 9 9 9 9 t u u t 9 9 9 9 9 9 9 9 9 9 9 9 u u u u u u u u u t t 6 u u u u 6 u 6 9 9 s I I I ",
"% % % 9 u u u u u u u u u u u u u u u u u u u u u u u u u u u u u u u u u u u u u u u u u u s R R R ",
"% % % 9 u u u u u u u u u u u u u u u u u u u u u u u u u u u u u u u u u u u u u y u u u u s R R R ",
"6 6 6 u u u u u u u u u u u u u u u u u u u u u u u u u u u u u u u u u u u u u u u u u u u s R R R ",
"u u u u u u u u u u u u u u u u u u u u u u u u u u @ @ u u u u u u u u u u u u u u u u u u s R E R ",
"u u u u u u u u u u u u u u u u u u u u u u u u 2 @ +.+.@ 2 u u u u u u u u u u u u u u u u s E E E ",
"u u u u u u u u u u u u u u u u u u u u u u t 7 j z ;.=.v l 7 t u u u u u u u u u u u u u u s E E E ",
"u u u u u u u u u u u u u u u u u u u u u u 7 O m o.,.<.1.' O 7 u u u u u u u u u u u u u u d E E R ",
"u u u u u u u u u u u u u u u u u u u u u 2 , O m o.,.<.<.Z + 7 u u u u u u u u u u u u u u s E E R ",
"; ; ; t u u u u u u u u u u u u u u u u u @ O O m o.>.<.<.' O 7 u u u u u u u u u u u u u u d E E R ",
"% % % 9 u u u u u u u u u u u u u u u u u # z X.@.,.<.<.<.<.=.c @ t u u u u u u u u u u u u s E E R ",
"% % % 9 u u u u u u u u u u u u u u u t e g x o.$.<.<.<.<.<.<.C h t u u u u u u u u u u u u s E E R ",
"- - - t u u u u u u u u u u u u u u u , O X.o.o.$.<.<.<.<.<.<.<.=.+ , u u u u u u u u u u u s E E R ",
"u u u u u u u u u u u u u u u u u u u , O X.O.$.:.<.<.<.<.<.<.<.;.' V < t u u u u u u u u u s E E R ",
"u u u u u u u u u u u u u u u u u u u , O X.#.<.<.<.<.<.<.<.<.<.<.<.| O 8 t u u u u u u u u s E E R ",
"5 5 5 t u u u u u u u u u u u u a e : n } :.>.<.<.<.<.<.<.<.<.<.<.<.| O 8 u u u u u u u u u s I I I ",
"% % % 9 u u u u u u u u u u u u 7 7 f { O.>.<.<.<.<.<.<.<.<.<.<.<.<.| O 8 u u u u u u u u u y u t a ",
"% % % 9 u u u u u u u u u u u u + z o.%.<.<.<.<.<.<.<.<.<.<.<.<.,.<.| O 7 u u u u u u u u u u u y u ",
"% % % 9 u u u u u u u u u u 7 3 + f _ [ | | | | | | | | | | | | | | Z O < 3 u y u u u u u u u s s s ",
"% % % 9 u u u u u u u u u u , + O O O O O O O O O O O O O O O O O O O + + O a t u u u u u u A R R R ",
"% % % 9 u u u u u u u u u u q 7 O G 5.5.5.5.5.5.5.5.5.5.5.5.5.5.5.5.3.+ 3 3 y t u u u u u u s R R R ",
"% % % 9 u u u u u u u u u u u u + W p.p.p.p.p.p.p.p.p.p.p.p.p.p.p.p.4.+ 3 u y a u u u u u u s R E R ",
"% % % 9 u u u u u u u u u u u u + W p.p.p.p.p.p.p.p.p.p.p.p.p.p.p.p.4.+ 0 u t a u u u u u u u u u u ",
"% % % 9 u u u u u u u u u u u u + W p.p.p.p.p.p.p.p.p.p.p.p.p.p.p.p.4.O 0 y a t u u u u u u u u u u ",
"% % % 9 u u u u u u u u u u u u O W p.p.p.p.p.p.p.p.p.p.p.p.p.p.p.p.4.O 5 y t a u u u u u u t s u u ",
"9 9 9 u u u u u u u u u u u a y O W p.p.p.p.p.p.p.p.p.p.p.p.p.p.p.p.4.+ 7 u u u u u u u u u s T T T ",
"u u u u u u u u u u u u u y t t O W p.p.p.p.p.p.p.p.p.p.p.p.p.p.p.p.4.+ 7 u u u u u u u u u s E E R ",
"u u u u u u u u u u u u u u t a + b >.w.p.p.p.p.p.p.p.p.p.p.p.p.y.<.| + 7 s u u u u u u u u s E E E ",
"u u u u u u u u u u u u u u a t o c <.9.r.i.p.p.p.p.p.p.p.p.p.y.w.<.| + 7 9 u u u u u u u u s E E R ",
"u u u u u u u u u u u u u u u u   $ <.<.<.y.a.a.a.a.a.a.a.a.a.6.<.<.| + 0 u t u u u u u u u p E E E ",
"u u u u u u u u u u u u u u & . ] ] <.<.<.7.q.a.a.a.a.a.a.e.8.2.<.<.| + 0 u u u u u u u u u d E R R ",
"- - - t u u u u u u u u u u .   <.<.<.<.<.<.2.a.a.a.a.a.a.0.<.<.<.<.| + 3 p u u u u u u u u p D S S ",
"% % % 9 u u u u u u u u u u .   <.<.<.<.<.<.1.2.q.a.a.y.2.<.<.<.<.<.| O 0 u u u u u u u u u u u u u ",
"% % % 9 u u u u u u u u u u = X +.+.<.<.<.<.<.<.8.t.e.e.<.<.<.<.<.<. .t t u t p u u u u u u u u u u ",
"% % % 9 u u u u u u u u u u ! ) O v <.<.<.<.<.<.<.<.<.<.<.<.<.<.<.<.-.( J u u p u u u u u u u u u u ",
"% % % 9 u u u u u u u u u u L U O z $.$.$.$.$.$.$.$.$.$.$.$.$.$.$.$...K d u 9 9 u u u u u u u u y u ",
"% % % 9 u u u u u u u u u u u u O z o.o.o.o.o.o.o.o.o.o.o.o.o.o.o.o.` O e y u p u u u u u u u u y t ",
"% % % 9 u u u u u u u u u u u u + + f f f ^ ~ f j B B N f Y ( M f f # + 7 u u u u u u u u u p D S S ",
"% % % 9 u u u u u u u u u u u u @ @ + + + ! Q O 1 u y y + H / q + @ @ @ 7 u u u u u u u u u s E E E ",
"% % % 9 u u u u u u u u u u u u u u u < + O O O 1 u u q + O + + @ t u u s 9 u u u u u u u u d E E E ",
"% % % 9 u u u u u u u u u u u u u u u u u u u u u u u u u y u u u u u u t a u u u u u u u u s E E E ",
"% % % 9 u u u u u u u u u u u u u u u u u u u u u u u u u u u u u u u u u u u u u u u u u u s E E E ",
"% % % 9 u u u u u u u u u u u u u u u u u u u u u u u u u u u u u u u u t u u u u u u u u u d E E E ",
"* * * p s s s s s p u u u u u p s s u u u u s s s s s s s s s s s s a u t s s s s s s s s s A E E E ",
"R R R R E E E R R D u u u u u D E E P u u s E E E E E E E E E E E E D u p H E E E E E E E E E E E E ",
"E E E E E E E E R D u u u u u D R R P u u s E E E E E E E E E E E E D t u F E E E E E E E E E E E E ",
"R R R R R R R R R D u u u u u D R R P u u s E E E E E E E E E E E E D u u F E E E E E E E E E E E E "
};
