/* XPM */
static char *f485fde4497f4c7586a4fb26da0fd5ffXeCYw5INocT77Wfb[] = {
/* columns rows colors chars-per-pixel */
"50 50 126 2 ",
"   c #1F1833",
".  c #221A33",
"X  c #222222",
"o  c #2C2928",
"O  c #302B2B",
"+  c #352E2E",
"@  c #292135",
"#  c #2E2536",
"$  c #302736",
"%  c #3A2635",
"&  c #332936",
"*  c #382E37",
"=  c #393131",
"-  c #3E3434",
";  c #3E3534",
":  c #3E3238",
">  c #433837",
",  c #41323A",
"<  c #403438",
"1  c #433739",
"2  c #44323C",
"3  c #463938",
"4  c #463939",
"5  c #483B3A",
"6  c #493C3A",
"7  c #4B3D3B",
"8  c #4B3D3C",
"9  c #4D3F3D",
"0  c #4E3F3D",
"q  c #543438",
"w  c #6F423B",
"e  c #29244D",
"r  c #353549",
"t  c #2D2755",
"y  c #2D2855",
"u  c #2D2C56",
"i  c #2C3859",
"p  c #2D3859",
"a  c #352F66",
"s  c #3A3468",
"d  c #38336F",
"f  c #3C3778",
"g  c #4A3E45",
"h  c #384C6D",
"j  c #394C6D",
"k  c #384473",
"l  c #534340",
"z  c #594743",
"x  c #594744",
"c  c #5A4744",
"v  c #5F4B47",
"b  c #4C4250",
"n  c #6A4C45",
"m  c #63494E",
"M  c #6B534E",
"N  c #6C544E",
"B  c #705050",
"V  c #705851",
"C  c #765C55",
"Z  c #775C55",
"A  c #565061",
"S  c #615863",
"D  c #726B79",
"F  c #777079",
"G  c #8A503E",
"H  c #955C44",
"J  c #8F664E",
"K  c #8D7D71",
"L  c #A67A69",
"P  c #A7796B",
"I  c #B58057",
"U  c #9A807D",
"Y  c #3A5880",
"T  c #4A469A",
"R  c #5D539F",
"E  c #4E4AA3",
"W  c #5956BD",
"Q  c #585EBF",
"!  c #4878A6",
"~  c #7061A3",
"^  c #746FAA",
"/  c #5867C0",
"(  c #5866C1",
")  c #586EC3",
"_  c #5777C4",
"`  c #577BC5",
"'  c #4B80AF",
"]  c #5687C8",
"[  c #568BC9",
"{  c #5290C2",
"}  c #5697CB",
"|  c #5698CC",
" . c #75A2C3",
".. c #8E8790",
"X. c #A5948B",
"o. c #A29993",
"O. c #AFA09D",
"+. c #868EB9",
"@. c #968AB3",
"#. c #94ABBA",
"$. c #A9A3A7",
"%. c #B8A9A3",
"&. c #B4B5B1",
"*. c #B8B8B4",
"=. c #C3A395",
"-. c #D2BEA8",
";. c #D3BFA9",
":. c #C4BEBD",
">. c #C5BFBE",
",. c #C6BFBE",
"<. c #DDCDBA",
"1. c #DECDBA",
"2. c #97B7CE",
"3. c #80B0D4",
"4. c #E0CCC0",
"5. c #E3D0C3",
"6. c #EBD9C7",
"7. c #E8DBCB",
"8. c #E8D8CC",
"9. c #E3DCD2",
"0. c #EDE2D3",
"q. c #F2E9DC",
"w. c #EFE9E1",
"e. c #F7F0E4",
"r. c #FCF6EC",
"t. c #FDF7ED",
/* pixels */
"X X X X X X X X X = 6 5 + X X X X X X X X X X X X 5 5 5 5 5 5 5 5 5 O X X + 5 5 = X X X X X X X X X ",
"X X X X X X X X X = 5 5 + X X X X X X X X X X X X 5 5 5 5 5 5 5 5 5 O X X + 5 5 = X X X X X X X X X ",
"X X X X X X X X X = 5 5 + X X X X X X X X X X X X & & & : 5 5 5 5 5 O X X + 5 5 = X X X X X X X X X ",
"X X X ; > > > > 1 3 5 5 3 3 > > > > > > > > 1 1 >       & 5 5 5 5 5 3 5 > 3 5 5 3 > > > > > 5 N N N ",
"X X X > 5 5 5 5 5 5 5 5 5 5 5 5 3 6 5 5 5 5 5 5 5   e T s @ : 6 5 5 5 5 5 5 5 5 5 5 5 5 5 5 0 Z Z Z ",
"X X X > 5 5 5 5 5 5 5 5 5 5 5 5 6 3 5 5 5 5 5 6 5   y W f   : 6 5 5 5 5 5 5 5 5 5 5 5 5 5 5 0 Z Z Z ",
"; ; ; 5 5 5 5 5 5 5 5 5 5 5 5 5 6 5 5 5 5 5 5 6 5   y W W W y   5 5 5 5 5 5 5 5 5 5 5 5 5 5 9 Z Z Z ",
"5 5 5 5 5 5 5 5 5 5 5 5 5 5 5 5 5 5 5 5 5 5 5 : : i k / Q W y   5 5 5 5 5 5 5 5 5 5 5 5 5 5 0 Z Z Z ",
"5 5 5 5 5 5 5 5 5 5 5 5 5 5 5 5 5 5 5 5 6 6 6 .   | | | _ W t . 5 5 5 5 5 5 5 5 5 5 5 5 5 5 0 Z Z Z ",
"5 5 5 5 5 5 5 5 5 5 5 5 5 5 5 5 5 5 5 5 5 : & j j ` _ _ / W t   5 5 5 5 5 5 5 5 5 5 5 5 5 5 0 Z Z Z ",
"5 5 5 5 5 5 5 5 5 5 5 5 5 5 5 5 5 5 5 5 5 &   ! | Q W W W W t   5 5 5 5 5 5 5 5 5 5 5 5 5 5 0 Z Z C ",
"5 5 5 5 5 5 5 5 5 5 5 5 5 5 5 6 5 5 @ @ @ h ! { | [ ` W W W E E @ $ 5 5 5 5 5 5 5 5 5 5 5 5 0 Z Z C ",
"+ + + 3 5 5 5 5 5 5 5 5 5 5 3 6 5 5       Y | | | } ] W W W W W . . 5 5 5 5 5 5 5 5 5 5 5 5 0 Z Z C ",
"X X X > 5 5 5 5 5 5 5 5 5 5 &       | | | | | | | } } } _ W t   5 5 5 6 5 5 5 5 5 5 5 5 5 5 0 Z Z C ",
"X X X > 5 5 5 5 5 5 5 5 3 : r i i i | | | | } [ ] ] ] ] ) W d t > < 5 5 5 5 5 5 5 5 5 5 5 5 0 Z Z C ",
"O O O 3 5 5 5 5 5 5 5 5 :   Y | | | | | | | | / W W W W W W W W . . 5 5 5 5 5 5 5 5 5 5 5 5 0 Z Z C ",
"5 5 5 5 5 5 5 5 5 5 5 & #   i Y Y Y Y Y j j Y Y f f f f f f f f . @ 5 5 5 5 5 5 5 5 5 5 5 5 0 Z Z C ",
"5 5 5 5 5 5 5 5 5 5 5                   . @ @                   . . 5 5 5 5 5 5 5 5 5 5 5 5 0 Z Z C ",
"; ; ; 3 5 5 5 5 5 5 5 : & . D >.>.>.J J H J J %.>.>.O.w ..*.o.X.  . @ * 5 5 5 5 5 5 5 5 5 5 0 N N M ",
"X X X 1 5 5 5 5 5 5 5 5 :   ..t.t.t.I I I I L 7.t.t.5.H =.e.<.<.      & 5 5 5 5 5 5 5 5 5 5 5 5 5 5 ",
"X X X 1 5 5 5 5 5 5 5 5 5 5 &   .   I I I I I 2     $ G =.r.1.-.  @ 5 5 5 5 5 5 5 5 5 5 5 5 5 5 5 5 ",
"X X X 1 5 5 5 5 5 5 5 5 5 5 &       I I I I I 2     % G =.r.1.-.  # 5 5 5 5 5 5 5 5 5 5 5 5 5 9 9 9 ",
"X X X 1 5 5 5 5 5 5 5 5 5 5 &       P I I I I 3     % H =.r.1.-.  . 5 5 5 5 5 5 5 5 5 5 5 5 g Z C C ",
"X X X 1 5 5 5 5 5 5 5 5 1 & S ..m q I I I I I w q q B =.4.r.1.-.  @ 5 5 5 5 5 5 5 5 5 5 5 5 9 Z Z C ",
"X X X > 6 5 5 5 5 5 5 5 :   ..t.L H I I I I I H G G P r.r.r.4.-.  @ 3 5 5 5 5 5 5 5 5 5 5 5 0 Z Z C ",
"X X X > 5 5 5 5 5 5 5 5 :   ..t.8.4.6.6.6.6.6.4.4.4.6.r.r.r.1.-.. # 5 5 5 5 5 5 5 5 5 5 5 5 5 5 5 5 ",
"X X X > 5 5 5 5 5 5 5 5 :   ..t.r.r.t.t.t.t.t.t.r.r.r.r.r.r.1.-.. . 5 5 5 5 5 5 5 5 5 5 5 5 5 5 5 5 ",
"X X X > 5 5 5 5 5 5 5 5 :   ..t.r.r.t.t.t.t.t.t.r.r.q.-.@.W t . 5 5 5 5 5 5 5 5 5 5 5 5 5 5 5 5 5 5 ",
"> > > 5 5 5 5 5 5 5 5 5 5 . D >.w.r.r.r.t.t.t.t.t.q.9.&.+.( y . 5 5 5 5 5 5 5 5 5 5 5 5 5 5 9 V V V ",
"5 5 5 5 5 5 5 5 5 5 5 5 5 g &   <.r.r.r.t.t.t.t.t.;.&.} } } i   5 5 5 5 5 5 5 5 5 5 5 5 5 5 0 Z Z C ",
"5 5 5 5 5 5 5 5 5 5 5 5 5 3 $   >.r.r.r.t.t.t.0.8.#.3.{ } } i   5 5 5 5 5 5 5 5 5 5 5 5 5 5 9 Z Z Z ",
"5 5 5 5 5 5 5 5 5 5 5 5 6 6 #   >.r.r.r.t.t.t.1.;.} | } } } i   5 5 5 5 5 5 5 5 5 5 5 5 5 5 9 Z Z C ",
"5 5 5 5 5 5 5 5 5 5 5 5 1 . j ! *.1.t.t.t.t.t.2. .| | | | | ' ! @ # 6 6 5 5 5 5 5 5 5 5 5 5 g C C Z ",
"5 5 5 5 5 5 5 5 5 5 5 5 ;   Y | $.1.t.t.t.t.t. .} | | | } | | }   @ 6 3 5 5 5 5 5 5 5 5 5 5 9 C C C ",
"O O o 3 5 5 5 5 5 5 5 5 :   f W W W t.t.t.t.t.+.W W Q W W W W W . # 6 3 5 5 5 5 5 5 5 5 5 5 9 c c c ",
"X X X 3 5 5 5 5 5 5 5 5 : . a T T T t.t.t.e.q.^ T E E ~ R T T T   . 6 6 5 5 5 5 5 5 5 5 5 5 5 5 6 6 ",
"X X X > 6 5 5 5 5 5 5 5 :           r.t.t.7.1.b . . 2 P w .       . 5 5 5 5 5 5 5 5 5 5 5 5 5 5 6 3 ",
"X X X > 5 5 5 5 5 5 5 5 1 & & & & & ..$.t.%.K g & # : n , . # & & : 5 5 5 5 5 5 5 5 5 5 5 5 5 5 6 3 ",
"X X X > 5 5 5 5 5 5 5 5 5 5 5 5 5 5 . A t.o.5 5 6 6 2 . . . ; 5 5 5 5 5 5 5 5 5 5 5 5 5 5 5 5 5 6 6 ",
"X X X 1 5 5 5 5 5 5 5 5 5 5 5 5 5 3 5 6 6 5 5 5 6 3 5 5 6 5 3 5 5 5 5 5 5 5 5 5 5 5 5 5 5 5 5 5 6 3 ",
"X X X > 5 5 5 5 5 5 5 5 5 5 5 5 5 5 5 5 5 5 5 5 5 5 5 5 5 5 5 5 5 5 5 5 5 5 5 5 5 5 5 5 5 5 6 c z z ",
"X X X > 5 5 5 5 5 5 5 5 5 5 5 5 5 5 5 5 5 5 5 5 5 5 5 5 5 5 5 5 5 5 5 5 5 5 5 5 5 5 5 5 5 5 9 Z Z C ",
"X X X > 5 5 5 5 5 5 5 5 5 5 5 5 5 5 5 5 5 5 5 5 5 5 5 5 5 5 5 5 5 5 5 5 5 5 5 5 5 5 5 5 5 5 0 Z Z C ",
"X X X 1 5 5 5 5 5 5 5 5 5 5 5 5 5 5 5 5 5 5 5 5 5 5 5 5 5 5 5 5 5 5 5 5 5 5 5 5 5 5 5 5 5 5 0 Z Z C ",
"X X X > 5 5 5 5 5 5 5 5 5 5 5 5 5 5 5 5 5 5 5 5 5 5 5 5 5 5 5 5 5 5 5 5 3 6 6 5 5 5 5 5 5 5 0 Z Z C ",
"X X X > 5 5 5 5 5 5 5 5 5 5 5 5 5 5 5 5 5 5 5 5 5 5 5 5 5 5 5 5 5 5 5 5 6 6 6 5 5 5 5 5 5 5 0 Z Z C ",
"o o o 5 9 9 9 l g 6 6 5 6 3 5 6 9 9 5 5 5 5 9 9 9 9 9 9 9 9 9 9 0 g 6 6 6 6 0 6 0 0 0 0 0 0 l Z Z C ",
"Z Z Z Z C C C Z Z x 6 3 6 6 6 x Z Z N 5 5 9 Z Z Z Z Z Z Z Z Z Z C C z 5 6 m Z Z Z Z Z Z Z Z Z Z Z Z ",
"Z Z Z Z Z Z Z Z Z c 5 5 5 5 5 c C C M 5 5 9 Z Z Z Z Z Z Z Z Z Z C Z z 3 6 v C C Z Z Z Z Z Z Z Z Z Z ",
"Z Z Z Z C C C C C c 5 5 5 5 5 c C C M 5 5 9 Z Z Z Z Z Z Z Z Z Z Z Z z 6 6 m Z Z Z Z Z Z Z Z Z Z Z Z "
};
