/* XPM */
static char *b3610a61449c4b76b1f69f9f0415be2f3w50vryQGAgqUdZa[] = {
/* columns rows colors chars-per-pixel */
"50 50 138 2 ",
"   c #1F1833",
".  c #211F26",
"X  c #201D2A",
"o  c #211A34",
"O  c #222222",
"+  c #2C2928",
"@  c #302B2B",
"#  c #352E2E",
"$  c #292034",
"%  c #292135",
"&  c #2E2535",
"*  c #2E2536",
"=  c #312736",
"-  c #3A2636",
";  c #312835",
":  c #332936",
">  c #362C37",
",  c #382E37",
"<  c #393131",
"1  c #3A3131",
"2  c #3E3434",
"3  c #3E3534",
"4  c #3D3238",
"5  c #3E3238",
"6  c #433837",
"7  c #41323A",
"8  c #403439",
"9  c #433639",
"0  c #44323C",
"q  c #463938",
"w  c #463939",
"e  c #483B3A",
"r  c #4B3D3B",
"t  c #4B3D3C",
"y  c #4D3F3D",
"u  c #4E3F3D",
"i  c #543438",
"p  c #6F423B",
"a  c #29244D",
"s  c #353549",
"d  c #2D2755",
"f  c #2D2855",
"g  c #2C3859",
"h  c #2D3859",
"j  c #352F66",
"k  c #3A3468",
"l  c #383370",
"z  c #3C3778",
"x  c #4A3E45",
"c  c #384C6D",
"v  c #384374",
"b  c #534340",
"n  c #594743",
"m  c #594744",
"M  c #5A4744",
"N  c #5F4B47",
"B  c #4D4150",
"V  c #6A4C45",
"C  c #63494E",
"Z  c #6B534E",
"A  c #6C544E",
"S  c #70504F",
"D  c #705851",
"F  c #715851",
"G  c #765C55",
"H  c #775C55",
"J  c #564F61",
"K  c #615863",
"L  c #726B79",
"P  c #8A503E",
"I  c #955C44",
"U  c #8F664E",
"Y  c #8D7D71",
"T  c #A67A69",
"R  c #A7796B",
"E  c #B48057",
"W  c #B58058",
"Q  c #3A5880",
"!  c #4A469A",
"~  c #544D9D",
"^  c #5D539F",
"/  c #4E4AA3",
"(  c #5956BD",
")  c #585EBF",
"_  c #4878A5",
"`  c #4878A6",
"'  c #7061A3",
"]  c #746FAB",
"[  c #5867C0",
"{  c #5866C1",
"}  c #586EC3",
"|  c #5777C4",
" . c #577BC5",
".. c #827EC9",
"X. c #4C80B0",
"o. c #5787C8",
"O. c #568BC9",
"+. c #5390C2",
"@. c #5697CB",
"#. c #5698CB",
"$. c #5698CC",
"%. c #75A2C3",
"&. c #8E8690",
"*. c #8E8790",
"=. c #A6958B",
"-. c #A29993",
";. c #AE9F98",
":. c #B0A09D",
">. c #868EB9",
",. c #968AB3",
"<. c #85A7BF",
"1. c #94ABBA",
"2. c #AAA3A7",
"3. c #B8A9A2",
"4. c #B3B5B1",
"5. c #B8B8B5",
"6. c #C3A395",
"7. c #C5BAAF",
"8. c #D3BFA9",
"9. c #C5BEBD",
"0. c #C5BFBE",
"q. c #C6BFBE",
"w. c #DECDBA",
"e. c #97B7CD",
"r. c #80AFD4",
"t. c #E0CDC1",
"y. c #E3D0C3",
"u. c #EBD9C7",
"i. c #E8DBCB",
"p. c #E8D8CC",
"a. c #E3DCD1",
"s. c #EDE2D3",
"d. c #F2E9DC",
"f. c #EFE9E1",
"g. c #F7F0E4",
"h. c #FCF6EC",
"j. c #FCF6ED",
"k. c #FDF7ED",
/* pixels */
"O O O O O O O O O 1 e e # O O O O O O O O O O O O e e e e e e e e e + O O , e e < O O O O O O O O O ",
"O O O O O O O O O 1 e e # O O O O O O O O O O O O e e e e e e e e e # O O # e e < O O O O O O O O O ",
"O O O O O O O O O 1 e e # O O O O O O O O . X X X e e e e e e e e e + O O # e e < O O O O O O O O O ",
"O O O 3 6 6 6 6 6 q e e q 6 6 6 6 6 6 6 6 ;       e e e e e e e q y e 9 9 9 e e q 6 6 6 6 q e A A A ",
"O O O 6 e e e e e e e e e e e e e e e 8 % k ! a   e e e e e e e e e e e e e e e e e e e e e y H H H ",
"O O O 6 e e e e e e e e e e e e e e e 5   z ( d   e e e e e e e e e e e e e e e e e e e e e y H H H ",
"3 3 3 e e e e e e e e e e e e e e e   f ( ( ( d   e e e e e e e e e e e e e e e e e e e e e y H G G ",
"e e e e e e e e e e e e e e e e e e   f ( ) [ v g 5 8 e e e e e e e e e e e e e e e e e e e y H H G ",
"e e e e e e e e e e e e e e e e e e   f ( | $.$.#.  % q e e e e e e e e e e e e e e e e e e u H H G ",
"e e e e e e e e e e e e e e e e e q   f ( [ | | | Q c ; 5 e e e e e e e e e e e e e e e e e u H H G ",
"e e e e e e e e e e e e e e e e e e   d ( ( ( ( ( $._   : e e e e e e e e e e e e e e e e e u H H G ",
"e e e e e e e e e e e e e e e e = % ! / ( ( (  .o.$.+._ c % % % e e e e e e e e e e e e e e u H H G ",
"# # # q e e e e e e e e e e e e % o ( ( ( ( ( o.$.$.$.$.Q o o   x e e e e e e e e e e e e e u H H G ",
"O O O 6 e e e e e e e e e e e e q e   f ( | $.$.$.$.$.$.$.$.@.@.      : e e e e e e e e e e u H H G ",
"O O O 6 e e e e e e e e e e e e 5 5 f l ( } o.o.o.o.O.@.$.$.@.$.h h h s 7 q e e e e e e e e u H H G ",
"@ @ @ q e e e e e e e e e e e e %   ( ( ( ( ( ( ( ( [ $.$.$.$.$.$.$.$.c   5 e e e e e e e e u H H G ",
"e e e e e e e e e e e e e e e r %   z z z z z z z z z c ! c Q Q Q Q Q g   * = e e e e e e e u H H G ",
"e e e e e e e e e e e e e e e r %         o         o X X o o %             o e e e e e e e u H H G ",
"2 2 2 q e e e e e e e e e e , o     =.;.w.Y p :.0.0.3.U U U U U w.5.q.L   = 8 e e e e e e e u Z A A ",
"O O O q e e e e e e e e e e = o     w.w.h.6.P t.j.j.p.T W E E T k.k.k.*.  s e e e e e e e e e e q e ",
"O O O q e e e e e e e e e e e e X   8.w.j.6.P -     q E W W W E       : e e e e e e e e e e e e e e ",
"O O O 6 e e e e e e e e e e e e o   8.w.j.6.P -     b E W W E E       ; e e e e e e e e e e e u r u ",
"O O O 6 e e e e e e e e e e e e *   8.w.h.6.P -     r E E E E E o   o = e e e e e e e e e e u H H H ",
"O O O 6 e e e e e e e e e e e e % o 8.w.h.t.6.S i i p E E E E E i C *.K ; 5 e e e e e e e e u H H H ",
"O O O 6 q e e e e e e e e e e e .   w.w.j.h.h.T P P I E E E E E I R j.&.  , e e e e e e e e y H H H ",
"O O O 6 e e e e e e e e e e e e     8.w.h.h.h.p.t.t.y.i.i.u.u.u.t.i.j.&.  4 e e e e e e e e e e q e ",
"O O O 6 e e e e e e e e e e e e X o w.w.h.h.g.j.h.h.h.j.k.k.k.k.j.j.j.&.  5 q e e e e e e e e e r e ",
"O O O 6 e e e e e e e e e e e e q q   f ( ,.w.d.h.h.h.h.k.k.k.k.j.j.j.&.  5 e e e e e e e e e e q e ",
"6 6 6 e e e e e e e e e e e e e q e o d [ >.4.a.d.k.k.k.k.k.k.k.k.d.w.L o 8 e e e e e e e e y F F F ",
"e e e e e e e e e e e e e e e e e e o g #.#.#.4.w.k.k.k.k.k.k.k.k.9.  % y e e e e e e e e e y H H H ",
"e e e e e e e e e e e e e e e e e e o g #.#.#.<.1.y.s.k.k.k.k.k.h.9.o ; e y e e e e e e e e y H H H ",
"e e e e e e e e e e e e e e e e e q o g #.#.#.+.+.w.w.k.k.k.k.k.h.9.o ; r q e e e e e e e e y H H H ",
"e e e e e e e e e e e e e e e e = % ` X.$.$.$.$.$.%.e.j.k.k.k.k.w.5.` c % 5 e e e e e e e e b G G G ",
"e e e e e e e e e e e e e e e e %   @.@.$.$.$.$.$.$.%.j.k.k.k.k.w.2.$.c   5 e e e e e e e e y G G G ",
"@ @ @ q e e e e e e e e e e e e %   ( ( ( ( ( ( ( ( >.k.k.k.h.j.( ( [ z   5 e e e e e e e e e M N n ",
"O O O 6 e e e e e e e e e e e e %   ! ! ! ^ ' ~ ! / ] g.g.h.h.j.! ! ! j o 8 e e e e e e e e e e e e ",
"O O O 6 e e e e e e e e e e e e %       o V W 7     x t.y.k.j.j.o   o     5 e e e e e e e e e e e e ",
"O O O 6 e e e e e e e e e e e e 4 = ; ;   0 V 7 = * x Y 7.h.2.&.: = = = : 8 e e e e e e e e e e q q ",
"O O O 6 e e e e e e e e e e e e e e e 5       5 x e e e -.h.J   y e e e e e e e e e e e e e e e r q ",
"O O O 6 e e e e e e e e e e e e e e e e e e e e 0 t e e q t t q t q e e e e e e e e e e e e e e q r ",
"O O O 6 e e e e e e e e e e e e e e e e e e e e e e e e e e e e e e e e e e e e e e e e e e y m n n ",
"O O O 6 e e e e e e e e e e e e e e e e e e e e e e e e e e e e e e e e e e e e e e e e e e y G H G ",
"O O O 6 e e e e e e e e e e e e e e e e e e e e e e e e e e e e e e e e e e e e e e e e t q y G H G ",
"O O O q e e e e e e e e e e e e e e e e e e e e e e e e e e e e e e e e e e e e e e e e q t y G H G ",
"O O O 6 e e e e e e e e e e e e e e e e e e e e e e e e e e e e e e e e e e e e e q t q t e y G H G ",
"O O O 6 e e e e e e e e e e e e q e e e e e e e e e e e e e e e e e e e e e e e e t q t q e y H H G ",
"+ + + e u r u u u r e e e e e e y y y e e e y y y y y y y y y y y y r e e r y y y y y y y y b H H G ",
"H H H H H H H H H n e e e e e n H H A e e y H H H H H H H H H H G G n e e C H H G G H H H H H H H G ",
"H H H H H H H H H n e e e e e m H H A e q y H H H H H H H H H H G G n e e N G G G H H H H H H H H G ",
"H H H H G G G G G n e e e e q m H H A q e y H H H H H H H H H H H H n r e C G G G G H H H H H H H G "
};
