/* XPM */
static char *d38652f034b948e686f3735f71c43934Mf1KqoBZmPAWcYKo[] = {
/* columns rows colors chars-per-pixel */
"50 50 161 2 ",
"   c black",
".  c #130F18",
"X  c #141A22",
"o  c #1F1833",
"O  c #201933",
"+  c #211A34",
"@  c #241C34",
"#  c #291F35",
"$  c #222222",
"%  c #2C2928",
"&  c #302B2B",
"*  c #362C2B",
"=  c #352E2E",
"-  c #292035",
";  c #2C2335",
":  c #2E2535",
">  c #322537",
",  c #302736",
"<  c #332936",
"1  c #382D37",
"2  c #382E37",
"3  c #352B3E",
"4  c #3A3131",
"5  c #3F3332",
"6  c #3E3434",
"7  c #3E3534",
"8  c #3D3238",
"9  c #433736",
"0  c #433837",
"q  c #433639",
"w  c #433739",
"e  c #45343B",
"r  c #4A363D",
"t  c #463938",
"y  c #463939",
"u  c #483B3A",
"i  c #493C3A",
"p  c #4B3D3B",
"a  c #4B3D3C",
"s  c #4D3F3D",
"d  c #4E3F3D",
"f  c #543438",
"g  c #623B3A",
"h  c #262846",
"j  c #29234D",
"k  c #352D42",
"l  c #29304F",
"z  c #393341",
"x  c #2D2755",
"c  c #2D2855",
"v  c #342E5E",
"b  c #2C3250",
"n  c #2C3859",
"m  c #39325F",
"M  c #323D5A",
"N  c #352F67",
"B  c #3C3778",
"V  c #453D4C",
"C  c #573F40",
"Z  c #384664",
"A  c #33486D",
"S  c #4A414D",
"D  c #4D4F4E",
"F  c #534340",
"G  c #594743",
"H  c #594744",
"J  c #5A4744",
"K  c #5F4B47",
"L  c #574D4C",
"P  c #6A4C45",
"I  c #6B534E",
"U  c #6C544E",
"Y  c #62565F",
"T  c #705851",
"R  c #765C55",
"E  c #775C55",
"W  c #494C60",
"Q  c #47456D",
"!  c #564F61",
"~  c #655D64",
"^  c #736B6F",
"/  c #78686F",
"(  c #726B79",
")  c #8A503E",
"_  c #855A48",
"`  c #8C5E49",
"'  c #9F684A",
"]  c #9E704C",
"[  c #986454",
"{  c #986555",
"}  c #996F50",
"|  c #A17352",
" . c #A97653",
".. c #AB795E",
"X. c #B07A54",
"o. c #8C7A7C",
"O. c #B48057",
"+. c #B58057",
"@. c #8E807C",
"#. c #9D8674",
"$. c #B98967",
"%. c #BE8F6A",
"&. c #433E89",
"*. c #3A5880",
"=. c #43478B",
"-. c #564C8E",
";. c #4A469A",
":. c #40628A",
">. c #416893",
",. c #746688",
"<. c #7C6697",
"1. c #514FAC",
"2. c #5956BD",
"3. c #4878A6",
"4. c #5067B1",
"5. c #6F6DBA",
"6. c #5866C1",
"7. c #586FC2",
"8. c #586FC3",
"9. c #5777C4",
"0. c #5D819C",
"q. c #4B85B3",
"w. c #4F87B8",
"e. c #4F88B9",
"r. c #6893B5",
"t. c #5787C8",
"y. c #5390C2",
"u. c #5790CA",
"i. c #5694CB",
"p. c #5698CB",
"a. c #5698CC",
"s. c #75A2C3",
"d. c #7DA4C1",
"f. c #918983",
"g. c #8E8790",
"h. c #968E93",
"j. c #A094B6",
"k. c #AAA3A7",
"l. c #B0A6A5",
"z. c #B2AAAA",
"x. c #B9B0AA",
"c. c #B3B5B1",
"v. c #C8A78A",
"b. c #C2BAAD",
"n. c #D1B8AB",
"m. c #D3BFA9",
"M. c #C6BCB5",
"N. c #C6BFBE",
"B. c #CAC4BA",
"V. c #D9C2B6",
"C. c #DECDBA",
"Z. c #99B3C3",
"A. c #E3D4C3",
"S. c #E8DBCB",
"D. c #EADFCF",
"F. c #F2E9DC",
"G. c #E7EAE7",
"H. c #E7EBE9",
"J. c #F8F0E5",
"K. c #FAF3E9",
"L. c #FDF7ED",
/* pixels */
"$ $ $ $ $ $ $ $ $ 4 u u = $ $ $ $ $ $ $ $ $ $ $ $ u u u u u u u u u % $ $ 1 u u 4 $ $ $ $ $ $ $ $ $ ",
"$ $ $ $ $ $ $ $ $ 4 u u = $ $ $ $ $ $ $ $ $ $ $ $ u u u u u u u u u & $ $ = u u 4 $ $ $ $ $ $ $ $ $ ",
"$ $ $ $ $ $ $ $ $ 4 u u = $ $ $ $ $ $ $ $ $ $ $ $ u u u u u u u i i % $ $ = i u 4 $ $ $ $ $ $ $ $ $ ",
"$ $ $ 7 0 0 0 0 0 t u u t 0 0 0 0 0 0 0 0 0 0 0 0 u u u u u u u i i t w 0 t u u t 0 0 0 w t i I U U ",
"$ $ $ 0 u u u u u u u u u u u u u u u u u u u u u u u u u u u u u u u u u u u u t i u u u u s E E E ",
"$ $ $ 0 u u u u u u u u u u u u u u u u u u u u u u u u u u u u u u u u u u u u u u u u u u s E E E ",
"7 7 7 u u u u u u u u u u u u u u u u u u u u u u u u u u u u u u u u u u u u u u u u u u u s E E E ",
"u u u u u u u u u u u u u u u u u u u u u u u u u u u u u u u u u u u u u u u u u u u u u u s E E E ",
"u u u u u u u u u u u u u u u u u u u u u u u u u u u u u u u u u u u u u u u u u u u u i i s E E E ",
"u u u u u u u u u u u u u u u u u u u u u u u u u u : 8 u u u u u u u u u u u u u u u u u i s E E E ",
"u u u u u u u u u u u u u u u u u u u u u u u u t q h z q u u u u u u u u u u u u u u u u u s E E E ",
"u u u u u u u u u u u u u u u u u u u u u u u u < o a.A @ u u u u u u u u u u u u u u u u u s E E E ",
"= = = t u u u u u u u u u u u u u u u u i u u : m &.a.3.:.: 8 u u u u u u u u u u u u u u u s E E E ",
"$ $ $ 0 u u u u u u u u u u u u u u u u i t 8 o B 2.a.a.w.o 1 u u u u u u u u u u u u u u u s E E E ",
"$ $ $ 0 u u u u u u u u u u u u u u u u t 1 o o B 2.a.a.w.o 1 u u u u u u u u u u u u u i u s E E R ",
"& & & t u u u u u u u u u u u u u u u u i 1 o ;.4.t.a.a.y.3.Z ; u u u u u u u u u u u u i r s E E R ",
"u u u u u u u u u u u u u u u u u u u u 9 3 x 2.9.i.a.a.a.a.*.M 8 t t u u u u u u u u u u u s E E R ",
"u u u u u u u u u u u u u u u u u u u u @ N 2.2.9.p.a.a.a.a.p.e.o 8 i i u u u u u u u u u u s E E R ",
"7 7 7 u u u u u u u u u u u u u i t u u @ N 2.u.i.a.a.a.a.a.a.a.e.b : u u u u u u u u u i u F I I I ",
"$ $ $ w u u u u u u u u u u u u i i w 1 N =.8.a.p.a.a.a.a.a.a.a.a.n - u u u u u u u u u u w u u u u ",
"$ $ $ w u u u u u u u u u u u u t i 2 o 1.8.a.a.a.a.a.a.a.a.a.a.a.n @ i u u u u u u u u u u i i u u ",
"$ $ $ 0 u u u u u u u u u u u u i - N 1.t.i.a.a.a.a.a.a.a.a.a.a.a.n - i u u u u u u u u u u i i d d ",
"$ $ $ 0 u u u u u u u u u u u 8 2 + c &.:.>.>.>.>.>.>.>.>.>.>.>.>.b @ 2 u u u u u u u u u u d E R R ",
"$ $ $ 0 u u u u u u u u u u u 8 o o o o o o o o o o o o o o o o o o o o u u u u u u u u u u d E R R ",
"$ $ $ 0 u u u u u u u u u u u u t @ Y m.J.L.L.) ' O.O.O.X.) n.L.L.! - u u u u u u u u u i i d E E R ",
"$ $ $ 0 u u u u u u u u u u u u t O Y m.h.g.g.f _ O.O.O. .f / g.g.S 8 t u u u u u u u u u t i u u u ",
"$ $ $ 0 u u u u u u u u u u u u i @ Y m.k o o o P O.O.O.| o + @ o 8 u u u u u u u u u u u u u u u u ",
"$ $ $ 0 u u u u u u u u u u u u t @ Y V.k + @ @ P O.O.O.| o o o o 8 u r u u u u u u u u u u u u u u ",
"0 0 0 u u u u u u u u u u u u u i @ Y V.z.k.k.g ` +.X.X. .g o.k.k.V < i u u u u u u u u u u d T T T ",
"u u u u u u u u u u u u u u u u i @ L V.J.L.L.{ ..%.%.%.$.[ V.L.L.! - t u u u u u u u u u u d R E R ",
"u u u u u u u u u u u u u u u u u $ Y V.J.L.L.L.L.L.L.L.L.L.L.L.L.! - u u u u u u u u u u u d E E E ",
"u u u u u u u u u u u u u u u u u . G m.J.L.L.L.L.L.L.L.L.L.L.L.L.! - u u u u u u u u u u u d E E R ",
"u u u u u u u u u u u u u u u 0 5 X D b.F.K.L.L.L.L.L.L.L.L.L.L.G.! - i u u u u u u u u u u d E E E ",
"u u u u u u u u u u u u u u u *   q.a.a.b.A.L.L.L.L.L.L.L.L.L.H.u.n - i u u u u u u u u u u d E R R ",
"& % % u u u u u u u u u u u u *   q.a.a.s.Z.C.L.L.L.L.L.L.L.D.B.a.n - t u u u u u u u u u u a J J J ",
"$ $ $ 0 u u u u u u u u u u u *   0.r.p.a.d.c.F.J.L.L.L.L.L.A.b.a.W w i u u u u u u u u u u u u u u ",
"$ $ $ 0 i u u u u u u u u u u *   ] f.p.a.i.p.V.S.L.L.L.L.L.A.b.a.#.} u u u u u u u u u u u u u u u ",
"$ $ $ 0 u u u u u u u u u u u 0 1 r Q 6.6.4.4.V.S.L.L.L.K.C.j.5.6.W w u u u u u u u u u u u u u u u ",
"$ $ $ w u u u u u u u u u u u u w @ x &.&.-.<.@.M.L.L.N.l.v.,.&.&.j # r u u u u u u u u u u u u u u ",
"$ $ $ t u u u u u u u u u u u u r @ o + + F O.o g.L.L.( , X.J O O O # w u u u u u u u u u u u u u t ",
"$ $ $ 0 u u u u u u u u u u u u u q q q @ - > o g.L.L.( o , - @ q q q u u u u u u u u u u u a J J J ",
"$ $ $ 0 u u u u u u u u u u u u u u u u > : : : ^ x.x.~ : : ; , u u u u u u u u u u u u u u d E E R ",
"$ $ $ 0 u u u u u u u u u u u u u u u u u u u u u u u u t u u u u u u u u u u u u u u u u u d E E R ",
"$ $ $ w u u u u u u u u u u u u u u u u u u u u u u u u u u u u u u u u u u u u u u u u u u d E E R ",
"$ $ $ 0 u u u u u u u u u u u u u u u u u u u u u u u u u u u u u u u u u u u u u u u u u u d E E R ",
"$ $ $ 0 i i u u u u u u u u u u i i u u u u u u u u u u u u u u u u u u u u u u u u u u u u d E E E ",
"% % % i s s s s s i u u u u u i s s i u u u s s s s s s s s s s d d i u u u d d d d d d d d C E E E ",
"E E E E E E E E E G u u u i i G E E I u u s E E E E E E E E E E R E J u u K R R R R E E E E E E E E ",
"E E E E E E E E E H u u u u u H E E I u u s E E E E E E E E E E E E J t u K R R R R R E E E E E E E ",
"E E E E E E E E E G u u u u u H R R I u u s E E E E E E E E E E E E J u u P R R R R R E E E E E E E "
};
