/* XPM */
static char *_443c45851434386c3a7bc5249e77eaddMMacOoQNYihSlT6[] = {
/* columns rows colors chars-per-pixel */
"50 50 86 1 ",
"  c #222222",
". c #222322",
"X c #292E24",
"o c #242629",
"O c #242729",
"+ c #242A29",
"@ c #262B2F",
"# c #2B2828",
"$ c #2C2928",
"% c #302B2B",
"& c #352E2E",
"* c #27322F",
"= c #303925",
"- c #273330",
"; c #293B36",
": c #2A3B36",
"> c #29353C",
", c #2A353C",
"< c #2A383C",
"1 c #3A3131",
"2 c #3E3434",
"3 c #3E3534",
"4 c #303F3B",
"5 c #433837",
"6 c #463938",
"7 c #483B3A",
"8 c #493C3A",
"9 c #4B3D3B",
"0 c #4B3D3C",
"q c #4D3F3D",
"w c #4E3F3D",
"e c #3A4D2E",
"r c #3F5029",
"t c #2B433D",
"y c #2C433D",
"u c #304738",
"i c #4E672D",
"p c #5C7E30",
"a c #31544B",
"s c #314955",
"d c #3F6B4F",
"f c #356459",
"g c #395C6F",
"h c #376064",
"j c #534340",
"k c #594744",
"l c #5A4744",
"z c #5F4B47",
"x c #6B534E",
"c c #6C544E",
"v c #715851",
"b c #775C55",
"n c #497145",
"m c #618E3E",
"M c #79AC37",
"N c #79AC38",
"B c #3F8574",
"V c #3F8674",
"C c #4E8252",
"Z c #5C9956",
"A c #669F4C",
"S c #7EBC45",
"D c #6BB059",
"F c #6BB05A",
"G c #4E9065",
"H c #568A77",
"J c #589578",
"K c #55A879",
"L c #5CB37B",
"P c #5DB37B",
"I c #5CB47C",
"U c #5DB47C",
"Y c #63B26B",
"T c #70C067",
"R c #80B739",
"E c #88C33B",
"W c #97D93F",
"Q c #97DA3F",
"! c #8DD349",
"~ c #88D04E",
"^ c #83CD53",
"/ c #84CD53",
"( c #417089",
") c #437D8B",
"_ c #49A690",
"` c #49A790",
/* pixels */
"         177&            777777777%  &771         ",
"         177&            777777777%  &771         ",
"         177&            777777777%  &771         ",
"   3555556776555555555555777777777665677655555wxxx",
"   5777777777777777777777777777777777777677777qbbb",
"   5777777777777777777777777777777777777777777qbbb",
"3337777777777777777777777777777777777777777777qbbb",
"7777777777777777777777777777777777777777777777qbbb",
"7777777777777777777777777777777777777777777777wbbb",
"7777777777777777777777777777777777777777777777wbbb",
"7777777777777777777777777777777777777777777777wbbb",
"7777777777777777777777777777777777777777777777wbbb",
"&&&6777777777777777777777777777777777777777777wbbb",
"   5777777777777777777777777777777777777777777wbbb",
"   5777777777777777777777777777777777777777777wbbb",
"%%%6777777777777777777777777777777777777777777wbbb",
"777777777777777777##############77777777777777wbbb",
"777777777777777777              77777777777777wbbb",
"2226777777777777# QQQQQQQQQQQQH( #777777777777qxxx",
"   5777777777777# ^~QQQQQ^^^!QH( #7777777777777760",
"   5777777777777# `PQQQQQ```TQH( #7777777777777707",
"   5777777777777# fCQQQQQfffAQH( #7777777777777qqq",
"   5777777777777#  rQQQQQ   pQH( #777777777777qbbb",
"   5777777777777#  rQQQQQ   pQH( #777777777777qbbb",
"   5777777777777#  rQQQQQ   pQH( #777777777777wbbb",
"   5777777777777# `PQQQQQ```TQH( #7777777777777777",
"   5777777777752utPYMEQRMPKBFQJ) o2577777777777777",
"   57777777777& B`QN pQr QN pQI`   &77777777777777",
"5557777777775&o afYZ p!r pi nYCf   #&577777777qvvv",
"7777777777772     `H pQr    f`yo     577777777qbbb",
"7777777777782   ..t; nIu    -y+      277777777qbbb",
"7777777777762 ...... f`y             277777777qbbb",
"77777777777              `G     `B     7777777qbbb",
"77777777777   *to y; *aX KG *yO `G @>o 7777777qbbb",
"%%%67777777   f`; `G f`u QM h_y _B s(> 7777777qkkk",
"   57777777 =mAYApYFpAYmp!SfG`hs_gsg(> 77777777777",
"   57777867 rQQQQQQQQQQ!QQ/___)((((((> 77777777777",
"   57777887 Xrrrrrrrrrrreeeyyy,,>>>>>o 77777777777",
"   57777689         ..  .....   o      77777777777",
"   5777768696766686q687769688687577777777777777776",
"   57777887777777777777777777777777777777777770kkk",
"   5777786777777777777777777777777777777777777qbbb",
"   5777787777777777777777777777777777777777777qbbb",
"   6777777777777777777777777777777777777777777qbbb",
"   5777777777777777777777777777777777777777777qbbb",
"   5777777777777767777767777867777777777777077qbbb",
"$$$7wwwww8777778qqw777qqwwwwwwwwqq0670qqqqqqqqjbbb",
"bbbbbbbbbl77778lbbx78wbbbbbbbbbbbbk77zbbbbbbbbbbbb",
"bbbbbbbbbl77777lbbx77wbbbbbbbbbbbbk77zbbbbbbbbbbbb",
"bbbbbbbbbl77777lbbc679bbbbbbbbbbbbk77zbbbbbbbbbbbb"
};
