/* XPM */
static char *_4c41f8590b54282a28969afc5351218A6lhm27wV4CszZI9[] = {
/* columns rows colors chars-per-pixel */
"50 50 81 1 ",
"  c #222222",
". c #222322",
"X c #262525",
"o c #272525",
"O c #242A29",
"+ c #262C2F",
"@ c #2B2828",
"# c #2C2928",
"$ c #302B2B",
"% c #332D2C",
"& c #352E2E",
"* c #27322F",
"= c #313926",
"- c #273330",
"; c #293B36",
": c #2A353C",
"> c #2A393C",
", c #3A3131",
"< c #3E3434",
"1 c #3E3534",
"2 c #403636",
"3 c #433837",
"4 c #463938",
"5 c #483B3A",
"6 c #493C3A",
"7 c #4B3D3B",
"8 c #4B3D3C",
"9 c #4D3F3D",
"0 c #4E3F3D",
"q c #3A4D2E",
"w c #3F5029",
"e c #3F5129",
"r c #2B433D",
"t c #2C433D",
"y c #354934",
"u c #5C7E30",
"i c #53773B",
"p c #31544B",
"a c #314955",
"s c #356459",
"d c #395C6F",
"f c #376064",
"g c #534340",
"h c #594743",
"j c #594744",
"k c #5A4744",
"l c #5F4B47",
"z c #6B534E",
"x c #6C544E",
"c c #705851",
"v c #765C55",
"b c #775C55",
"n c #497145",
"m c #497162",
"M c #407B7F",
"N c #638A32",
"B c #618F3E",
"V c #79AC37",
"C c #7AAC37",
"Z c #7AAB38",
"A c #3F8674",
"S c #669F4C",
"D c #7FBD45",
"F c #6BB059",
"G c #4E8F65",
"H c #559A67",
"J c #559B67",
"K c #488C7A",
"L c #578A76",
"P c #5CB37B",
"I c #5DB37B",
"U c #70C067",
"Y c #97D93F",
"T c #97DA3F",
"R c #83CC53",
"E c #83CD53",
"W c #417089",
"Q c #437E8B",
"! c #458B8C",
"~ c #49A690",
"^ c #49A790",
/* pixels */
"         ,55&            555555555$  &55,         ",
"         ,55&            555555555$  &55,         ",
"         ,55&            555555555$  &55,         ",
"   13333345543333333333335555555554544554333344cxx",
"   35555555555555555555555555555555555554555556vbv",
"   3555555555555555555555555555555555555555555gbbv",
"11155555555555555555555555555555555555555555558bbb",
"55555555555555555555555555555555555555555555558bbb",
"55555555555555555555555555555555555555555555559bbb",
"55555555555555555555555555555555555555555555550bbb",
"55555555555555555555555555555555555555555555559bbv",
"55555555555555555555555555555555555555555555559bbv",
"&&&45555555555555555555555555555555555555555559bbv",
"   35555555555555555555555555555555555555555559bbv",
"   355555555555555&&&&&&&&&&&&&&555555555555559bbv",
"$$$455555555555555              555555555555589bbv",
"5555555555555555%@dmCCCCCCCCCCCC@%5555555555559bbv",
"5555555555555555@ WLTTTTTTTTTTTT @5555555555559bbb",
"1114555555555555@ WLTU~~~TTTTTI^ @5555555555849zzz",
"   3555555555555@ WLEFAAGETTTEJG @5555555555484855",
"   1555555555555@ WLTu   TYYTTe# @5555555555556456",
"   4555555555555@ WLTu   TYYTTeo @5555555555556980",
"   4555555555555@ WLTu   TYYTTe. @5555555555559vbv",
"   3555555555555@ WLTFAAATYYYTJG @5555555555559vbv",
"   3455555555555o.WLTU~~~TTTTTP~.#6555555555660vbv",
"   3655555555555@.^ITu VT eTN VY~K6655555555446556",
"   3555555555555@.KJDn NV eTu SRKf5555555555645555",
"   3555555555555@.Ot~s    eTu A~ #5555555566485455",
"333555555555551&.. *sr    yUi ps X&155555555558ccc",
"55555555555556& .. .      r~s      &5555555555gvbv",
"5555555555551@o           Or+   ...X@1555555558bbb",
"5555555555551    .              .... 155555554gbbv",
"55555555555     A^O....A^......        55555558bbb",
"55555555555     A^.Or;.GP.OrO ;t Ot*   55555550bbb",
"%##55555555     K^.r^s.VR.r~s G~ t~s   55555558ljk",
"   45555555   :ad!ad^AsDTuBUSuFUuBUn   55555555455",
"   35555555   aWWWWQ~~~ETTTTTTTTTTTu   55555555555",
"   35555555   +::::>r;pqeeeeeeeeeqe=   55555555555",
"   35555555             ....  ..  .    55555555555",
"   35555555555554855445567744744464646555555555554",
"   35555555555555555555555555555555555555555556kjj",
"   35555555555555555555555555555555555555555550bbv",
"   35555555555555555555555555555555555555555550bbv",
"   45555555555555555555555555555555555555555560bbv",
"   35555555555555555555555555555555546655555558bbb",
"   35555555555555555555555555555555566555556550bbb",
"##@6996g96555556998555999999999999665600000000gbbb",
"bbvvbvvbbk55556jbbz559bbbbbbbbbbbbj55lvvvvbbbbbbbb",
"bbbbbbbbbj45555jbbz559bbbbbbbbbbbbj55lbbbbbbbbbbbb",
"bbbbbvvvvj55555jbbz559bbbbbbbbbbbbj55lbbbbbbbbbbbb"
};
