/* XPM */
static char *fc3b6f930d354681d0da4053957e3521K1wrzYY5XCiOLZGh[] = {
/* columns rows colors chars-per-pixel */
"50 50 68 1 ",
"  c #222222",
". c #222322",
"X c #272525",
"o c #242A29",
"O c #2B2828",
"+ c #2C2928",
"@ c #302B2B",
"# c #332D2C",
"$ c #352E2E",
"% c #27322F",
"& c #273330",
"* c #293B37",
"= c #3A3131",
"- c #3E3434",
"; c #3E3534",
": c #413635",
"> c #433837",
", c #463938",
"< c #483B3A",
"1 c #493C3A",
"2 c #4B3D3B",
"3 c #4D3F3D",
"4 c #4E3F3D",
"5 c #3F5029",
"6 c #2C433D",
"7 c #354A33",
"8 c #5C7E30",
"9 c #53773B",
"0 c #30544B",
"q c #334E5C",
"w c #356459",
"e c #395C6F",
"r c #395D6F",
"t c #3A6770",
"y c #534340",
"u c #594744",
"i c #5A4744",
"p c #5F4B47",
"a c #6B534E",
"s c #6C544E",
"d c #705851",
"f c #765C55",
"g c #775C55",
"h c #497145",
"j c #417366",
"k c #497161",
"l c #648932",
"z c #79AB37",
"x c #79AC37",
"c c #7AAC37",
"v c #7AAC38",
"b c #3F8574",
"n c #6BA247",
"m c #6BB05A",
"M c #559B67",
"N c #50976C",
"B c #498C7A",
"V c #568A77",
"C c #5DB37B",
"Z c #5CB47C",
"A c #70C067",
"S c #97DA3F",
"D c #83CD53",
"F c #84CD53",
"G c #417089",
"H c #437D8B",
"J c #49A690",
"K c #49A790",
/* pixels */
"         =<<$            <<<<<<<<<@  $<<=         ",
"         =<<$            <<<<<<<<<@  $<<=         ",
"         =<<$            <<<<<<<<<+  $<<=         ",
"   ;>>>>>,<<,>>>>>>>>>>>><<<<<<<<<<>>><<,>>>>><sss",
"   ><<<<<<<<<<<<<<<<<<<<<<<<<<<<<<<<<<<<<<<<<<4ggg",
"   ><<<<<<<<<<<<<<<<<<<<<<<<<<<<<<<<<<<<<<<<<<4ggg",
";;;<<<<<<<<<<<<<<<<<<<<<<<<<<<<<<<<<<<<<<<<<<<4ggg",
"<<<<<<<<<<<<<<<<<<<<<<<<<<<<<<<<<<<<<<<<<<<<<<4ggg",
"<<<<<<<<<<<<<<<<<<<<<<<<<<<<<<<<<<<<<<<<<<<<<<4ggg",
"<<<<<<<<<<<<<<<<<<<<<<<<<<<<<<<<<<<<<<<<<<<<<<4ggg",
"<<<<<<<<<<<<<<<<<<<<<<<<<<<<<<<<<<<<<<<<<<<<<<4ggg",
"<<<<<<<<<<<<<<<<<<<<<<<<<<<<<<<<<<<<<<<<<<<<<<4ggg",
"$$$,<<<<<<<<<<<<<<              <<<<<<<<<<<<<<4ggg",
"   ><<<<<<<<<<<<#OvvvvvvvvvvvvkeO$<<<<<<<<<<<<4ggg",
"   ><<<<<<<<<<<<O SSSSSSSSSSSSVG O<<<<<<<<<<<<3ggg",
"@@@,<<<<<<<<<<<<O KCSSSSSKKKASVG O<<<<<<<<<<<13ggg",
"<<<<<<<<<<<<<<<<O bMSSSSSbbbmSVG O<<<<<<<<<<<<3ggf",
"<<<<<<<<<<<<<<<<O  5SSSSS   8SVG O<<<<<<<<<<<<3ggg",
";-;,<<<<<<<<<<<<O  5SSSSS   8SVG O<<<<<<<<<<<<3ass",
"   ><<<<<<<<<<<<O  5SSSSS   8SVG O<<<<<<<<<<<<1<<<",
"   ><<<<<<<<<<<<O bMSSSSSbbbmSVG O<<<<<<<<<<<<<<<,",
"   ><<<<<<<<<<<<O KCSSSSSKKKASVG O<<<<<<<<<<<<<344",
"   ><<<<<<<<<<<<BKSv 8S5 Sx 8SZK O<<<<<<<<<<<<3ggg",
"   ><<<<<<<<<<<<jbDn 8S5 xl 9DNb O<<<<<<<<<<<<3ggg",
"   ><<<<<<<<<<<<O Kb 8S5    wK6  O<<<<<<<<<<<<3ggg",
"   ><<<<<<<<<<<<O w0 hA7    6w%  O<<<<<<<<<<<<1<<,",
"   ><<<<<<<<<<<<O    wK6         O<<<<<<<<<<<<<<<<",
"   ><<<<<<<<<<<<:;   &6o        ;><<<<<<<<<<<<<<<<",
">>><<<<<<<<<<<<<11              <<<<<<<<<<<<<<3ddd",
"<<<<<<<<<<<<<<<<1,              <<<<<<<<<<<<<<3ggg",
"<<<<<<<<<<<<<<11;;              ;;<<<<<<<<<<<<3ggg",
"<<<<<<<<<<<<<<,1+               .O<<<<<<<<<<<<3ggg",
"<<<<<<<<<<<<<<;$   ..    w0 ..  w0+=<<<<<<<<<<4ggg",
"<<<<<<<<<<<<<<$    .  .  Kb ..  JB.#<<<<<<<<<<4ggg",
"@@+<<<<<<<<<>OX qebw 0b* Dn.0B*.JB XO-<<<<<<<<4uuu",
"   ><<<<<<<<-   eGJN.wK6 Sx wJ6.JB   -<<<<<<<<<,<<",
"   ><<<<<<<<-   cSSSSSFDSSFKKKHGGe   :<<<<<<<<<<<<",
"   ><<<<<<<<-   lccccccvzxnBbBteeq   :<<<<<<<<<<<<",
"   ><<<<<<<<:   ....+.   ...   . ... :<<<<<<<<<<<<",
"   ><<<<<<<<<<<>22,222<<>>,1::>1::,,,,<<<<<<<<<<<,",
"   ><<<<<<<<<<<<<<<<<<<<<<<<<<<<<<<<<<<<<<<<<<1uuu",
"   ><<<<<<<<<<<<<<<<<<<<<<<<<<<<<<<<<<<<<<<<<<4ggf",
"   ><<<<<<<<<<<<<<<<<<<<<<<<<<<<<<<<<<<<<<<<<<4ggf",
"   ><<<<<<<<<<<<<<<<<<<<<<<<<<<<<<<<<<<<<<<<<14ggf",
"   ><<<<<<<<<<<<<<<<<<<<<<<<<<<<<<<<<<<<<<<1<<4ggf",
"   ><<<<<<<<<<<<<1<<<<<<<<<<<<<<<<<<11<<<<<,<<4ggf",
"+OO1441y4<<<<<<<331<<<33333333334411<144444444yggf",
"gggggggggi<<<<<igga<<3ggggggggggggu<<pfgffgggggggf",
"ggggggggfu<<<<<ugga<<3ggggggggggggu<<pgggggggggggg",
"gggggfffgu<<<<<ugga<<3fgggggggggggu<<pgggggggggggg"
};
