/* XPM */
static char *ac1533de68324b75bbcf20879dc49a5322PUVt5hjIu9OICy[] = {
/* columns rows colors chars-per-pixel */
"50 50 85 1 ",
"  c #222222",
". c #222322",
"X c #292626",
"o c #292D24",
"O c #242728",
"+ c #242629",
"@ c #242A29",
"# c #262B2F",
"$ c #2B2828",
"% c #2C2928",
"& c #302B2B",
"* c #352E2E",
"= c #27322F",
"- c #313926",
"; c #293B36",
": c #29353C",
"> c #2A353C",
", c #2A393C",
"< c #393131",
"1 c #3A3131",
"2 c #3E3434",
"3 c #3E3534",
"4 c #303F3B",
"5 c #433837",
"6 c #463938",
"7 c #483B3A",
"8 c #493C3A",
"9 c #4B3D3B",
"0 c #4B3D3C",
"q c #4D3F3D",
"w c #4E3F3D",
"e c #3A4D2E",
"r c #3F5029",
"t c #3F5129",
"y c #2B433D",
"u c #2C433D",
"i c #304638",
"p c #4E672D",
"a c #5C7E30",
"s c #30544B",
"d c #314955",
"f c #3F6B4F",
"g c #356459",
"h c #395C6F",
"j c #376064",
"k c #534340",
"l c #594743",
"z c #594744",
"x c #5A4744",
"c c #5F4B47",
"v c #6B534E",
"b c #715851",
"n c #775C55",
"m c #497145",
"M c #447B5C",
"N c #407B7F",
"B c #618F3E",
"V c #7AAC37",
"C c #3F8674",
"Z c #4E8252",
"A c #5D9956",
"S c #669F4C",
"D c #7FBD45",
"F c #6BB05A",
"G c #4E8F65",
"H c #578A76",
"J c #589478",
"K c #55A879",
"L c #5CB37B",
"P c #5DB37B",
"I c #5CB47C",
"U c #64B16A",
"Y c #70C067",
"T c #81B73A",
"R c #88C33B",
"E c #97D93F",
"W c #97DA3F",
"Q c #8DD349",
"! c #88D04E",
"~ c #83CC53",
"^ c #83CD53",
"/ c #417089",
"( c #437E8B",
") c #458B8C",
"_ c #49A790",
/* pixels */
"         177*            777777777%  *771         ",
"         177*            777777760*  *771         ",
"         177*            777777706%  *771   . ..  ",
"   35555567765555555555557777777606656776555550vvv",
"   5777777777777777777777777777777777777607777wnnn",
"   5777777777777777777777777777777777777767777wnnn",
"3337777777777777777777777777777777777777777777wnnn",
"7777777777777777777777777777777777777777777777wnnn",
"7777777777777777777777777777777777777777777777wnnn",
"7777777777777777777777777777777777777777777777wnnn",
"7777777777777777777777777777777777777777777777wnnn",
"7777777777777777777777777777777777777777777777wnnn",
"***6777777777777777777777777777777777777777777wnnn",
"   5777777777777777777777777777777777777777777wnnn",
"   5777777777777777777777777777777777777777777wnnn",
"&&&6777777777777777777777777777777777777777777wnnn",
"777777777777777777$$$$$$$$$$$$$$77777777777777wnnn",
"777777777777777777              77777777777777wnnn",
"1517777777777777$ /HWWWWWWWWWWWW $777777777777wvvv",
"   5777777777777$ /HWQ^^^WWWWW!^ $7777777777777777",
"   5777777777777$ /HWY___WWWWWI_ $7777777777777779",
"   5777777777777$ /HWSgggWWWWWZg %7777777777776wqq",
"   5777777777777$ /HWa   WWWWWe  %777777777777wnnn",
"   5777777777777$ /HWa   WEEEWt  %777777777777wnnn",
"   5777777777777o /HEB.. WWWWEe. %777777777777qnnn",
"   5777777777776X /HEU___WWWWWP_ %7777777777760796",
"   5777777777755X.(JEFCKPVTWRVUPy,2577777777770667",
"   57777777777*  ._PEa.VW tWa.VW_C *77777777776077",
"5557777777775*X   gMYm.pa.tWa.AFgs $*577777777qbbb",
"7777777777775      i_g....tWa.H_    .377777777qnnn",
"7777777777771      Oy@  ..yLf.yy  ...377777706qnnn",
"7777777777791            .y_g...  ...377777760qnnn",
"77777777777     C_     C_   ........   7777777qnnn",
"77777777777 +># C_ @y= GI @y@ ;y.Oy#   7777777qnnn",
"&&&57777777 >/d C_ y_g VW y_g H_Oy_g   77777779xzz",
"   57777777 >/hdN)dj_CgDWaBYSBFFBBUSa- 77777777777",
"   57777777 >//////(___^WWWWWWWWWWWWWt 77777777777",
"   57777777 +>>>>>>,yyyeetrrrrrrttttto 97777777777",
"   57777777             .       .  . ..77777777777",
"   57777777777777777777788888677366666967777777777",
"   57777777777777777777777777777777777777777779lzz",
"   5777777777777777777777777777777777777777777qnnn",
"   5777777777777777777777777777777777777777796qnnn",
"   5777777777777777777777777777777777777777769qnnn",
"   5777777777777777777777777777777777777777777qnnn",
"   5777777777777777777767777697777777777777977qnnn",
"%%$7w9www9777779qq0777wwwqqqqqqqww9779wwwwwwqqknnn",
"nnnnnnnnnx77777xnnv79qnnnnnnnnnnnnx76cnnnnnnnnnnnn",
"nnnnnnnnnx97777znnv77qnnnnnnnnnnnnx67cnnnnnnnnnnnn",
"nnnnnnnnnx67777znnv77qnnnnnnnnnnnnx67cnnnnnnnnnnnn"
};
