/* XPM */
static char *_0afe631c0a449179f6ec8c2de68c791SI6BGf5KcrtJeamj[] = {
/* columns rows colors chars-per-pixel */
"50 50 76 1 ",
"  c #222222",
". c #222322",
"X c #272525",
"o c #242A29",
"O c #2B2828",
"+ c #2C2928",
"@ c #302B2B",
"# c #332D2D",
"$ c #352E2E",
"% c #273330",
"& c #293B36",
"* c #393131",
"= c #3A3131",
"- c #3E3434",
"; c #3E3534",
": c #413635",
"> c #403636",
", c #433837",
"< c #463938",
"1 c #483B3A",
"2 c #493C3A",
"3 c #4B3D3B",
"4 c #4D3F3D",
"5 c #4E3F3D",
"6 c #3F5029",
"7 c #3F5129",
"8 c #2B433D",
"9 c #2C433D",
"0 c #354934",
"q c #5C7E30",
"w c #30544B",
"e c #35574E",
"r c #334E5B",
"t c #344D5C",
"y c #356459",
"u c #395C6F",
"i c #395D6F",
"p c #3A6770",
"a c #534340",
"s c #594743",
"d c #594744",
"f c #5A4744",
"g c #5F4B47",
"h c #6B534E",
"j c #6C544E",
"k c #705851",
"l c #765C55",
"z c #775C55",
"x c #497145",
"c c #417266",
"v c #497162",
"b c #648932",
"n c #79AC37",
"m c #7AAC37",
"M c #7AAB38",
"N c #7AAC38",
"B c #3F8574",
"V c #3F8674",
"C c #6BA247",
"Z c #6BA347",
"A c #6BB059",
"S c #559B67",
"D c #51986C",
"F c #488C7A",
"G c #578A76",
"H c #5DB37B",
"J c #5CB47C",
"K c #70C067",
"L c #97D93F",
"P c #97DA3F",
"I c #83CD53",
"U c #84CD53",
"Y c #417089",
"T c #437E8B",
"R c #49A690",
"E c #49A790",
/* pixels */
"         =11$            111111111@  $11=         ",
"         =11$            111111111@  $11=         ",
"         =11$            111111111@  $11=         ",
"   ;,,,,,<11<,,,,,,,,,,,,111111111<<,<11,,,,,<1hhh",
"   ,1111111111111111111111111111111111111111115zzz",
"   ,1111111111111111111111111111111111111111114zzz",
";;;11111111111111111111111111111111111111111114zzz",
"11111111111111111111111111111111111111111111114zzz",
"11111111111111111111222211111111111111111111115zzz",
"11111111111111111111<<2<11111111111111111111115zzz",
"11111111111111111111222211111111111111111111115zzz",
"1111111111111111111111<211111111111111111111115zzz",
"$$$<11111111111111              111111111111115zzz",
"   ,111111111111#OuvNNNNNNNMNNNMX$1111111111115zzz",
"   ,111111111111O YGPPPPPPPPPPPP.+1111111111115zzl",
"@@@<111111111111O YGPKERRPPPPPJR.+1111111111115zzl",
"1111111111111111O YGLZBBBPPPPPSB +1111111111114zzz",
"1111111111111111O YGLq   PPPPP6  +1111111111114zzz",
";-;<111111111111O YGLq   PPPPP6 .+1111111111114hhh",
"   ,111111111111O YGLq   PPPPP6 .X1111111111111111",
"   ,111111111111O YGIAFFVPPPLPSB X1111111111111111",
"   ,111111111111O YGUKRREPPPLPHR X1111111111111444",
"   ,111111111111O RJPb.mP.7Pq.nPRF1111111111114zzz",
"   ,111111111111O VDUb.bn.7Pq.nKFc1111111111114zzz",
"   ,111111111111X  8Ry  ..7Pb.VR O1111111111114zzl",
"   ,111111111111O  %y8  ..0Kx.wy +1111111111111111",
"   ,111111111111O   .   . 8Ey .. X1111111111111111",
"   ,111111111111--        .9X  .>>1111111111111211",
",,,1111111112<2221          ... 111111111111114kkk",
"111111111111222<11          ..  111111111111114zzl",
"111111111112<222--              ;>1111111111114zzz",
"111111111112<2<2+                +1111111111114zzl",
"11111111111111;$ey     wy   ......$;22<2<211115zzz",
"11111111111111$ VE     VE   .......$<2<21211115zll",
"@@O111111111,OX VE &Vw ZI &Fw.eFir.XO:221111112sff",
"   ,11111111;   VE 8Ey.NU 8Ry.VEYi...-<<1111111211",
"   ,11111111-   uYYTRRRUPPPPPPPPUm...:221111111111",
"   ,11111111-   tuupBBFCmmmmnmmmmb...=221111111111",
"   ,11111111-           X.......X....:<21111111111",
"   ,111111111111111<<<11<222<<222222<22211111111<<",
"   ,1111111111111111111111111111111111111111115sss",
"   ,1111111111111111111111111111111111111111115lzl",
"   <1111111111111111111111111111111111111111115lzl",
"   <11111111111111111111111111111111111111111<5lzl",
"   ,1111111111111111111111111111111111111112115zzz",
"   ,111111111111111111111111111111111211111<115zzz",
"++O14444411111114441114444444444445<1244445555azzz",
"llllzzzzzf11111fzzh114zzzzzzzzzzzls12gzzllzzzzzzzz",
"zzzzzzzzlf11111fllh114zzzzzzzzzzzzf11gzzzzzzzzzzzz",
"lllllllllf11111fllh114lzzzzzzzzzzzf11gzzzzzzzzzzzz"
};
