/* XPM */
static char *b37b43d9923544bba47260c9a3fd4b78nzVMLPGcSyolHiTB[] = {
/* columns rows colors chars-per-pixel */
"50 50 83 1 ",
"  c #222222",
". c #222322",
"X c #292727",
"o c #242A29",
"O c #2B2828",
"+ c #2C2928",
"@ c #302B2B",
"# c #352E2E",
"$ c #27322F",
"% c #293B36",
"& c #2A353C",
"* c #2B3F3D",
"= c #3A3131",
"- c #3E3434",
"; c #3E3534",
": c #403636",
"> c #433837",
", c #463938",
"< c #483B3A",
"1 c #493C3A",
"2 c #4B3D3B",
"3 c #4B3D3C",
"4 c #4D3F3D",
"5 c #4E3F3D",
"6 c #374427",
"7 c #3A4D2F",
"8 c #3F5029",
"9 c #3F5129",
"0 c #2B433D",
"q c #2C433D",
"w c #314639",
"e c #4E672D",
"r c #526A30",
"t c #5C7E30",
"y c #32424B",
"u c #31544B",
"i c #314955",
"p c #3F6B4F",
"a c #356459",
"s c #375A63",
"d c #395C6F",
"f c #3B6A71",
"g c #464E48",
"h c #534340",
"j c #594743",
"k c #594744",
"l c #5F4B47",
"z c #48564F",
"x c #6B534E",
"c c #6C544E",
"v c #715851",
"b c #765C55",
"n c #775C55",
"m c #618F3E",
"M c #79AB37",
"N c #7AAC37",
"B c #79AB38",
"V c #7AAC38",
"C c #3F8574",
"Z c #3F8674",
"A c #4E8252",
"S c #5D9956",
"D c #6A9846",
"F c #669F4C",
"G c #6BB059",
"H c #6BB05A",
"J c #72BB5C",
"K c #5CB37B",
"L c #61A964",
"P c #70BF67",
"I c #70C067",
"U c #97D93F",
"Y c #97DA3F",
"T c #81BF51",
"R c #80C54C",
"E c #83CD53",
"W c #84CD53",
"Q c #417089",
"! c #438F81",
"~ c #458B8C",
"^ c #47998E",
"/ c #49A690",
"( c #49A790",
/* pixels */
"         =<<#            <<<<<<<<<@  #<<=         ",
"         =<<#            <<<<<<<<<@  #<<=         ",
"         =<<#            <<<<<<<<<@  #<<=     .   ",
"   ;>>>>>,<<,>>>>>>>>>>>><<<<<<<<<,,>,<<>>>>,:2xcx",
"   ><<<<<<<<<<<<<<<<<<<<<<<<<<<<<<<<<<<<<<<<<<5nnn",
"   ><<<<<<<<<<<<<<<<<<<<<<<<<<<<<<<<<<<<<<<<<<4nnn",
";;;<<<<<<<<<<<<<<<<<<<<<<<<<<<<<<<<<<<<<<<<<<<4nnn",
"<<<<<<<<<<<<<<<<<<<<<<<<<<<<<<<<<<<<<<<<<<<<<<4nnn",
"<<<<<<<<<<<<<<<<<<<<<<<<<<<<<<<<<<<<<<<<<<<<<<5nnn",
"<<<<<<<<<<<<<<<<<<<<<<<<<<<<<<<<<<<<<<<<<<<<<<5nnn",
"<<<<<<<<<<<<<<<<<<<<<<<<<<<<<<<<<<<<<<<<<<<<<<5nnn",
"<<<<<<<<<<<<<<<<<<<<<<<<<<<<<<<<<<<<<<<<<<<<<<5nnn",
"###,<<<<<<<<<<<<<<<<<<<<<<<<<<<<<<<<<<<<<<<<<<5nnn",
"   ><<<<<<<<<<<<<<<<<<<<<<<<<<<<<<<<<<<<<<<<<<5nnn",
"   ><<<<<<<<<<<<<;#############;<<<<<<<<<<<<<<5nnn",
"@@@,<<<<<<<<<<<<<#             #<<<<<<<<<<<<<<5nnn",
"<<<<<<<<<<<<<<<:OydDVVVVVVVVVVVr+:<<<<<<<<<<<<4nnb",
"<<<,<<<<<<<<<<<- iQTYYYYYYYYYYYt ;<<<<<<<<<<<<4nnb",
"---,<<<<<<<<<<<- iQTY///IYYYYW/a ;<<<<<<<<<<<<4xxx",
"   ,<<<<<<<<<<<- iQTYZZZHYYYYRZu ;<<<<<<<<<<<<<<<<",
"   :<<<<<<<<<<<- iQTY   tYYYYB   ;<<<<<<<<<<<<<<<<",
"   ,<<<<<<<<<<<- iQTY   tYYYYB   ;<<<<<<<<<<<<<444",
"   :<<<<<<<<<<<- iQTY   tYYYYB   ;<<<<<<<<<<<<4nbb",
"   ,<<<<<<<<<<<- iQTYZZZHYYYYRZu ;<<<<<<<<<<<<4nnn",
"   ><<<<<<<<<<<- iQTU/((IYYYYW(a ;<<<<<<<<<<<<5nnb",
"   ><<<<<<<<<<<- a(WY.8Yt NY 7YI/z<<<<<<<<<<<<<<<<",
"   ><<<<<<<<<<<- uCJW.6Me.NY.7WLCg<<<<<<<<<<<<<<<<",
"   ><<<<<<<<<<<-  .C(     NY.q(a ;<<<<<<<<<<<<<<<<",
">>><<<<<<<<<11,-   ua    .SP.$aq -<<<<<<<<<<<<4vvv",
"<<<<<<<<<<<<,11:         .C/.... -<<<<<<<<<<<<5nbb",
"<<<<<<<<<<<<11XX          %q     ++<<<<<<<<<<<4nnb",
"<<<<<<<<<<<<<,         .           <<<<<<<<<<<4nnb",
"<<<<<<<<<<<<O  0/a.   q(a           +<<<<<<<<<4nnb",
"<<<<<<<<<<<<O  0/a.%q wKp %q o0$ %0 +<<<<<<<<<5nnb",
"@@@,<<<<<<<<O  0/a.C/.7Yt C( 0(a C( +<<<<<<<<<5jkk",
"   ><<<<<<<<O is~fi!/aAYNtGPtmPFtGP +<<<<<<<<<<,<<",
"   ><<<<<<<<O QQQQQ^//PEYYYYYYYYUYY X<<<<<<<<<<<<<",
"   ><<<<<<<<O &&&&&*qqw899979988888 X<<<<<<<<<<<<<",
"   ><<<<<<<<O   . ......            X<<<<<<<<<<<<<",
"   ><<<<<<<<<<<<<<<<<<<<<<<<<222<,<<<<<<<<<<<<<<,,",
" ..><<<<<<<<<<<<<<<<<<<<<<<<<<<<<<<<<<<<<<<<<<5jjj",
" ..><<<<<<<<<<<<<<<<<<<<<<<<<<<<<<<<<<<<<<<<<<4nnn",
"  .><<<<<<<<<<<<<<<<<<<<<<<<<<<<<<<<<<<<<<<<<<4nnn",
"   :<<<<<<<<<<<<<<<<<<<<<<<<<<<<<<<<<<<<<<<<<<4nnn",
"   ><<<<<<<<<<<<<<<<<<<<<<<<<<<<<<<<<<<<<<<<<<4nnn",
"   ><<<<<<<<<<<<<<<<<<<<<<<<<<<<<<<<<<<<<<<<<<4nnn",
"+XO2444443<<<<<2444<<<4444444444442<<244444444hnnn",
"nbbbnnnnnk<<<<<jnnx<<4nnnnnnnnnnnnj<<lnnnnnnnnnnnn",
"nnnnnnnnnk,<<<<knnc,34nnnnnnnnnnnnk<<lnnnnnnnnnnnn",
"nnnnnnnnnk<<<<<knnc,,4nnnnnnnnnnnnj<<lnnnnnnnnnnnn"
};
