/* XPM */
static char *_3d2bc1f4e8b400dc34bd7d92a949779FC6uLuxVJqNd9LuN[] = {
/* columns rows colors chars-per-pixel */
"50 50 84 1 ",
"  c #222222",
". c #222322",
"X c #262525",
"o c #272525",
"O c #242A29",
"+ c #262C2F",
"@ c #2B2828",
"# c #2C2928",
"$ c #302B2B",
"% c #332D2C",
"& c #352E2E",
"* c #27322F",
"= c #313926",
"- c #273330",
"; c #293B36",
": c #2A353C",
"> c #2A383C",
", c #3A3131",
"< c #3E3434",
"1 c #3E3534",
"2 c #403636",
"3 c #433837",
"4 c #463938",
"5 c #483B3A",
"6 c #493C3A",
"7 c #4B3D3B",
"8 c #4B3D3C",
"9 c #4D3F3D",
"0 c #4E3F3D",
"q c #3A4D2E",
"w c #3F5029",
"e c #2B433D",
"r c #2C433D",
"t c #354A33",
"y c #5C7E30",
"u c #53773B",
"i c #30544B",
"p c #314955",
"a c #356459",
"s c #395C6F",
"d c #376064",
"f c #534340",
"g c #594743",
"h c #594744",
"j c #5A4744",
"k c #5F4B47",
"l c #6B534E",
"z c #6C544E",
"x c #705851",
"c c #765C55",
"v c #775C55",
"b c #497145",
"n c #417366",
"m c #497161",
"M c #648932",
"N c #618E3E",
"B c #79AC37",
"V c #7AAC38",
"C c #3F8574",
"Z c #3F8674",
"A c #669F4C",
"S c #6BA247",
"D c #7EBC45",
"F c #6BB059",
"G c #6BB05A",
"H c #4E9065",
"J c #559B67",
"K c #569B67",
"L c #50976C",
"P c #498C7A",
"I c #568A77",
"U c #5CB37B",
"Y c #5DB37B",
"T c #5CB47C",
"R c #70C067",
"E c #97D93F",
"W c #97DA3F",
"Q c #83CD53",
"! c #84CD53",
"~ c #417089",
"^ c #437D8B",
"/ c #458B8C",
"( c #49A690",
") c #49A790",
/* pixels */
"         ,55&            555555555$  &55,         ",
"         ,55&            555555555$  &55,         ",
"         ,55&            555555555$  &55,         ",
"   13333345543333333333335555555554544554242445zll",
"   35555555555555555555555555555555555555555559vvc",
"   35555555555555555555555555555555555555555559vvc",
"11155555555555555555555555555555555555555555559vvv",
"55555555555555555555555555555555555555555555559vvv",
"55555555555555555555555555555555555555555555550vvc",
"55555555555555555555555555555555555555555555550vvv",
"55555555555555555555555555555555555555555555550vvc",
"55555555555555555555555555555555555555555555550vvc",
"&&&45555555555555555555555555555555555555555550vvc",
"   35555555555555555555555555555555555555555550vvc",
"   355555555555555&&&&&&&&&&&&&&555555555555559vvc",
"$$$455555555555555              555555555555559vvc",
"5555555555555555%@VVVVVVVVBBBBms@&5555555555559vvv",
"5555555555555555@ WWWWWWWWEEWWI~ @5555555555559vvv",
"1124555555555555@ )YWWWWW(((RWI~ @5555555555559lll",
"   2555555555555@ CJWWWWWPCCFWI~ @5555555555555555",
"   2555555555555@  wWWWWW   yWI~ @5555555555555555",
"   4555555555555@  wWWWWW   yWI~ @5555555555555999",
"   3555555555555@  wWWWWW   yWI~ @5555555555559cvv",
"   3555555555555@ CJWWWWWCCCFWI~ @5555555555559cvv",
"   3555555555555@ )UWWWWW)))RWI~ @5555555555665vvv",
"   3555555555555P)WV yWw WB yWT) @5555555555566555",
"   3555555555555nCQS yWw BM uQLC @5555555555555555",
"   3555555555555@ )C yWw    a)e  @5655555555555555",
"333555555555641&X ai bRt    ea*  X&155555555555xxx",
"55555555555566&      a)e           &5555555555fcvc",
"5555555555551#X      -eO           X@1555555555vvv",
"5555555555551                        155555555fvvc",
"55555555555              (C ....(C     55555559vvv",
"55555555555   -rO e; *eO YH *r..(P     55555559vvv",
"$$$45555555   a); (H a(e WB a)r.)Z .   55555555jhh",
"   35555555   bRNyRFyARNyWDaP)sp/sp-   55555555555",
"   35555664.  y!WWWWWWW!WW!(((^~^^~p   55555555555",
"   35555664.  =wwwwwwwwqqqqrrr:::;:+   55555555555",
"   35555664...o.....o.. ........       55555555555",
"   35555464747776474775566664465446555555555555554",
"   35555665555555555555555555555555555555555559hhh",
"   35555645555555555555555555555555555555555559vvv",
"   35555664555555555555555555555555555555555559vvv",
"   35555466655555555555555555555555555555555549vvv",
"   36555555555555555555555555555555555555555559vvv",
"   36455555555555555555555555555555555555555559vvv",
"@@@5000077555557999555999999999999955999999999fvvv",
"vvvvvvvvvj55555gvvl559vvvvvvvvvvvvh55kvvvvvvvvvvvv",
"vvvvvvvvvj36555hvvl559vvvvvvvvvvvvh55kvvvvvvvvvvvv",
"vvvvvvvvvj66555gvvl459vvvvvvvvvvvvh55kvvvvvvvvvvvv"
};
