/* XPM */
static char *c756b5dd6d9e44a6d113cfb857b22d4dHCTz6GXlWdvCmc6L[] = {
/* columns rows colors chars-per-pixel */
"50 50 81 1 ",
"  c #222222",
". c #222322",
"X c #292726",
"o c #292727",
"O c #242A29",
"+ c #2B2828",
"@ c #2C2928",
"# c #302B2B",
"$ c #352E2E",
"% c #27322F",
"& c #293B36",
"* c #2A353C",
"= c #393131",
"- c #3A3131",
"; c #3E3434",
": c #3E3534",
"> c #433837",
", c #463938",
"< c #483B3A",
"1 c #493C3A",
"2 c #4B3D3B",
"3 c #4D3F3D",
"4 c #4E3F3D",
"5 c #384427",
"6 c #3A4D2E",
"7 c #3F5029",
"8 c #2B433D",
"9 c #2C403D",
"0 c #314638",
"q c #314738",
"w c #4E672D",
"e c #526A30",
"r c #5C7E30",
"t c #32424B",
"y c #31544B",
"u c #314955",
"i c #3F6B4F",
"p c #356459",
"a c #365963",
"s c #395C6F",
"d c #3B6A71",
"f c #464E48",
"g c #534340",
"h c #594743",
"j c #594744",
"k c #5F4B47",
"l c #485650",
"z c #6B534E",
"x c #6C544E",
"c c #765C55",
"v c #775C55",
"b c #618E3E",
"n c #79AC37",
"m c #7AAC37",
"M c #79AC38",
"N c #7AAC38",
"B c #3F8574",
"V c #3F8674",
"C c #4E8252",
"Z c #5C9956",
"A c #6A9845",
"S c #669F4C",
"D c #6BB059",
"F c #6BB05A",
"G c #72BB5B",
"H c #5CB37B",
"J c #5CB47C",
"K c #61A964",
"L c #70C067",
"P c #97D93F",
"I c #97DA3F",
"U c #81BF51",
"Y c #80C54C",
"T c #81C54C",
"R c #83CD53",
"E c #84CD53",
"W c #417089",
"Q c #438F81",
"! c #458B8C",
"~ c #47998E",
"^ c #49A790",
/* pixels */
"         -<<$            <<<<<<<<<#..$<<-         ",
"         -<<$            <<<<<<<<<#..$<<-.        ",
"         -<<$            <<<<<<<<<#..$<<-         ",
"   :>>>>>,<<,>>>>>>>>>>>><<<<<<<<<,,>><<>>>>><<xxz",
"   ><<<<<<<<<<<<<<<<<<<<<<<<<<<<<<<<<<<<<<<<<<4vvv",
"   ><<<<<<<<<<<<<<<<<<<<<<<<<<<<<<<<<<<<<<<<<<4vvv",
":::<<<<<<<<<<<<<<<<<<<<<<<<<<<<<<<<<<<<<<<<<<<4vvv",
"<<<<<<<<<<<<<<<<<<<<<<<<<<<<<<<<<<<<<<<<<<<<<<4vvv",
"<<<<<<<<<<<<<<<<<<<<<<<<<<<<<<<<<<<<<<<<<<<<<<4vvv",
"<<<<<<<<<<<<<<<<<<<<<<<<<<<<<<<<<<<<<<<<<<<<<<4vvv",
"<<<<<<<<<<<<<<<<<<<<<<<<<<<<<<<<<<<<<<<<<<<<<<4vvv",
"<<<<<<<<<<<<<<<<<<<<<<<<<<<<<<<<<<<<<<<<<<<<<<4vvv",
"$$$,<<<<<<<<<<<<<<<<<<<<<<<<<<<<<<<<<<<<<<<<<<4vvv",
"   ><<<<<<<<<<<<<<<<<<<<<<<<<<<<<<<<<<<<<<<<<<4vvv",
"   ><<<<<<<<<<<<<:$$$$$$$$$$$$$:<<<<<<<<<<<<<<4vvc",
"###,<<<<<<<<<<<<<$             $<<<<<<<<<<<<<<4cvv",
"<<<1<<<<<<<<<<<;+eNNNNNNNNNNNAsto:<<<<<<<<<<<<4cvc",
"<<<1<<<<<<<<<<<; rIIIIIIIIIIIYWu.;<<<<<<<<<<<<4cvv",
">;;><<<<<<<<<<<; p^RIIIIL^^^EUWu.;<<<<<<<<<<<<4xzz",
"   ><<<<<<<<<<<; yBYIIIIFBBBIUWu.:<<<<<<<<<<<<<<<<",
"   ><<<<<<<<<<<;   mIIIIr   IYWu :,<<<<<<<<<<<<<<<",
"   ><<<<<<<<<<<;   mIIIIr   IYWu :11<<<<<<<<<<<433",
"   ><<<<<<<<<<<;   mIIIIr X IUWu.:<<<<<<<<<<<<4cvv",
"   ><<<<<<<<<<<; yBYIIIIDBBBIUWu.:<<<<<<<<<<<<4cvv",
"   >><<<<<<<<<<; p^EIIIEG^^^IYdl :,<<<<<<<<<<<3vvv",
"   ><<<<<<<<<<<l^GI7XIm bE7.IY^p :<<<<<<<<<<<<<<<<",
"   ><<<<<<<<<<<fBKE6 IN wm5.EGBy.:<<<<<<<<<<<<<<<<",
"   ><<<<<<<<<<<; p^0 IN    .^B  .:<<<<<<<<<<<<<<<<",
">>><<<<<<<<<<<>; tp% GZ     py   :,<<<<<<<<<<<<cvz",
"<<<<<<<<<<<<<<<>..   ^BO        .:<<<<<<<<<<<<3cvv",
"<<<<<<<<<<<<<<XX    .q*         .++<<<<<<<<<<<<vvv",
"<<<<<<<<<<<<<<      .           ...<<<<<<<<<<<gvvv",
"<<<<<<<<<<<<@   ........p^t....p^8. X<<<<<<<<<3vvv",
"<<<<<<<<<<<<@ &&.@8O 8*.iJq t&.p^8  @<<<<<<<<<3vvv",
"###><<<<<<<<+.^B.p^&.^V rI7.^V p^8  @<<<<<<<<<3jjj",
"...><<<<<<<<+OGFbAGbrGDrmICp^Vud!au @<<<<<<<<<<<<<",
".. >1<<<,2,,o.EEIIIIIIIEIIJ^^~WWWWW @><<<<<<<<<<<<",
"   ><<<<2,2,+.777777777677q888***** @1<<<<<<<<<<<<",
"   ><<<<211,X.@X....X...  .      .  @21<<<<<<<<<<<",
"   ><<<<11111112,11111<<>11<<<<<1>111><<<<<<<<<<<,",
"   ><<<<1111,,11<<<<<<<<<<<<<<<<<<<<<<<<<<<<<<<jjj",
"   ><<<<1,,1111,<<<<<<<<<<<<<<<<<<<<<<<<<<<<<<4vvc",
"   ><<<<1,11,111<<<<<<<<<<<<<<<<<<<<<<<<<<<<<<4vvc",
"   ><<<<111,11,1<<<<<<<<<<<<<<<<<<<<<<<<<<<<<<4vvc",
"   ><<<<<<<<11,1<<<<<<<<<<<<11,<<<<<<<<<<<<<<<4vvv",
"   ><,<<<<<<,1<1<<<<<<<<<<<<,111<<<<<<<<<<<<<<4vvv",
"@@@<444442<<<<<2331<<<333333333333<<<<g2<g4444gvvv",
"vvvvvvvvvh<<<<<hvvx<<3vvvvvvvvvvvvh<<kvvvvvvvvvvvv",
"vvvvvvvvvh><<<<jvvz<<3vvvvvvvvvvvvj<<kvvvvvvvvvvvv",
"vvvvvvvvvh<<<<<jvvz<<3vvvvvvvvvvvvj<<kvvvvvvvvvvvv"
};
