/* XPM */
static char *result[] = {
/* columns rows colors chars-per-pixel */
"50 50 51 1 ",
"  c #222222",
". c #242323",
"X c gray14",
"o c #262525",
"O c #272625",
"+ c #292726",
"@ c #292727",
"# c #2B2828",
"$ c #2C2828",
"% c #2C2928",
"& c #2E2929",
"* c #2D2A29",
"= c #2E2A29",
"- c #2D2A2A",
"; c #302B2B",
": c #322C2C",
"> c #332D2C",
", c #332D2D",
"< c #342E2D",
"1 c #352E2E",
"2 c #352F2E",
"3 c #37302F",
"4 c #393131",
"5 c #3A3131",
"6 c #3D3332",
"7 c #3C3432",
"8 c #3E3434",
"9 c #3F3434",
"0 c #3E3534",
"q c #403635",
"w c #413635",
"e c #423735",
"r c #403636",
"t c #433737",
"y c #423835",
"u c #433837",
"i c #443936",
"p c #463938",
"a c #473B38",
"s c #483B3A",
"d c #493C3B",
"f c #4C3E3B",
"g c #4C3F3B",
"h c #4E3F3E",
"j c #554441",
"k c #574641",
"l c #5D4A46",
"z c #624D48",
"x c #654F4B",
"c c #6C554F",
"v c #775C55",
/* pixels */
"vvvvvv3  kvvvvvvvvvvvvvvvvvv%  zvvvvvvvvvvvvvvc   ",
"vvvvvv3  kvvvvvvvvvvvvvvvvvv%  zvvvvvvvvvvvvvvc   ",
"vvvvvv3  kvvvvvvvvvvvvvvvvvv%  zvvvvvvvvvvvvvvc   ",
"hhhhhh=  6hhhhhhhhhhhhhhhhhho  whhhhhhhhhhhhhhd   ",
"ssssss#  5sssssssssssssssssso  0ssssssssssssssu   ",
"ssssss#  5sssssssssssssssssso  0ssssssssssssssu   ",
"ssssss#  5sssss9##,ssssssssso  0sssssssssssr##@   ",
"ssssss#  5sssss4  #ssssssssso  0sssssssssss8      ",
"ssssss#  5sssss4  #ssssssssso  0sssssssssss8      ",
";;;;;;o  #;;;;;$  X;;;;;;;;;.  #;;;;;;;;;;;-      ",
"                                                  ",
"                                                  ",
"gggO  eggggg3  :gggggggggggggggggg:  3gggggggga   ",
"vvv%  zvvvvvg  evvvvvvvvvvvvvvvvvvy  gvvvvvvvvc   ",
"vvv%  zvvvvvg  evvvvvvvvvvvvvvvvvvy  gvvvvvvvvc   ",
"xxx2;;jxxxxxi  7xxxxxxxxxxxxxxxxxx7  ixxxxxxxxl   ",
"ssssssssssss1  ;ssssssssssssssssss;  1ssssssssu   ",
"ssssssssssss1  ;ssssssssssssssssss;  1ssssssssu   ",
"ssssssssssss1  ;ssssssssssssssssss;  1ssp88qssu   ",
"ssssssssssss1  ;ssssssssssssssssss;  1ss4  #ssu   ",
"ssssssssssss1  ;ssssssssssssssssss;  1ss4  #ssu   ",
"tttttttttttt>  *tttttttttttttttttt&  >tt3  +tt8   ",
"                                                  ",
"                                                  ",
"                                                  ",
"vvvvvvvvvvvvvvvvvvvvvc   vvvvvvvvvvvvvvvvvvvvvc   ",
"vvvvvvvvvvvvvvvvvvvvvc   vvvvvvvvvvvvvvvvvvvvvc   ",
"vvvvvvvvvvvvvvvvvvvvvc   vvvvvvvvvvvvvvvvvvvvvc   ",
"hhhhhhhhhhhhhhhhhhhhhd   hhhhhhhhhhhhhhhhhhhhhd   ",
"sssssssssssssssssssssu   sssssssssssssssssssssu   ",
"sssssssssssssssssssssu   sssssssssssssssssssssu   ",
"sssssssss3##5ssssssssu   sssssssssssssssssssssu   ",
"sssssssss;  1ssssssssu   sssssssssssssssssssssu   ",
"sssssssss;  1ssssssssu   sssssssssssssssssssssu   ",
";;;;;;;;;o  @;;;;;;;;-   ;;;;;;;;;;;;;;;;;;;;;-   ",
"                                                  ",
"                                                  ",
"gggggg%  7ggggggggggggggggggggg%  7ggggggggggga   ",
"vvvvvv3  kvvvvvvvvvvvvvvvvvvvvv3  kvvvvvvvvvvvc   ",
"vvvvvv3  kvvvvvvvvvvvvvvvvvvvvv3  kvvvvvvvvvvvc   ",
"xxxxxx<  fxxxxxxxxxxxxxxxxxxxxx<  fxxxxxxxxxxxl   ",
"ssssss#  5sssssssssssssssssssss#  5sssssssssssu   ",
"ssssss#  5sssssssssssssssssssss#  5sssssssssssu   ",
"ssssss#  5ssssssssssss888ssssss#  5ssu88qsssssu   ",
"ssssss#  5sssssssssssu   ssssss#  5ss1  ;sssssu   ",
"ssssss#  5sssssssssssu   ssssss#  5ss1  ;sssssu   ",
"tttttt#  3ttttttttttt8   tttttt#  3tt>  *ttttt8   ",
"                                                  ",
"                                                  ",
"                                                  "
};
