/* XPM */
static char *c43696f49f7840dcb1c5d7835221153d19Qz9beJNomtzI8S[] = {
/* columns rows colors chars-per-pixel */
"50 50 37 1 ",
"  c #111111",
". c #121111",
"X c #222222",
"o c #232222",
"O c #222323",
"+ c #232323",
"@ c #2C2928",
"# c #302B2B",
"$ c #352E2E",
"% c #3A3131",
"& c #3E3434",
"* c #3E3534",
"= c #433837",
"- c #463938",
"; c #483B3A",
": c #493C3A",
"> c #4D3F3D",
", c #4E3F3D",
"< c #62232F",
"1 c #534340",
"2 c #594744",
"3 c #5A4744",
"4 c #5F4B47",
"5 c #6B534E",
"6 c #6C544E",
"7 c #715851",
"8 c #775C55",
"9 c #8E4029",
"0 c #8F4029",
"q c #A98C7A",
"w c #A98D7A",
"e c #AA8D7A",
"r c #72D5CD",
"t c #72D6CE",
"y c #D2BEA9",
"u c #D3BFA9",
"i c #FCF6EC",
/* pixels */
"XXXXXXXXX%;;$XXXXXXXXXXXX;;;;;;;;;@++$;;%+++XXXXXX",
"XXXXXXXXX%;;$XXXXXXXXXXXX;;;;;;;;;$OX$;;$+++XXXXXX",
"XXXXXXXXX%;;$XXXXXXXXXXXX;;;;;;;;;@OX$-;$XXXXX++XX",
"XXX*=====-;;-============;;;;;;;;:-===:;-====-;656",
"XXX=;;;;;;;;;;;;;;;;;;;;;;;;;;;;;;;;;;;;;;;;;;,888",
"XXX=;;;;;;;;;;;;;;;;;;;;;;;;;;;;;;;;;;;;;;;;;;,888",
"***;;;;;;;;;;;;;;;;;;;;;;;;;;;;;;;;;;;;;;;;;;;,888",
";;;;;;;;;;;;;;;;;;;;;;;;;;;;;;;;;;;;;;;;;;;;;;,888",
";;;;;;;;;;;;;;;;;;;;;;;;;;;;;;;;-;;-;;;;;;;;;;,888",
";;;;;;;;;;;XeeXuuuXXXXXXXXXXXXXXuuu+qqO;;;;;;;,888",
";;;;;;;;;;XeeuuXXX88X88888888X88+++uuqqO;;;;;;,888",
";;;;;;;;;XeeuXX888;;X;;;;;;;;X;:888++uqq+;;;;;,888",
"$$$-;;;;;eXuX88X;;XXXXXXXXXXXXXX--+88+u+w;;;;;,888",
"XXX=;;;;;euX;;;XXX              XX+-;-+uw;;;;;,888",
"XXX=;;;;;uXX;;X   0 000 <<9 099   .X;;++u;;;;;,888",
"###-;;;;;uX8XX  000 000 <<9 099 90..++8+u;;;;;,888",
";;;;;;;;;X;;8X0 0<0 000 <<9 009 <0 9X8:;+;;;;;,888",
";;;;;;;;;X;;X 0 0<0 000 009 009 <0 0 X-=+-;;;;,888",
"&&*-;;;;;XXXX00 0<0 0<0 00< 0<< 0<0 0XXX+;;;;;,555",
"XXX=;;;;;88X 00 0<< 000 00< 0<< <<0 9<X88;;;;;;;;;",
"XXX=;;;;;;;X000 0<< 0<0 00< 0<< <0< <0+;;;;;;;;;;;",
"XXX=;;;;;;XXX90 00< 0<0 00< 00< <0< <0+;;;;;;;;,;1",
"XXX=;;;;;;Xt++XXX<< 0<0 <0< 0<9 XXX 0<X-;;;;;;,888",
"XXX=;;;;;XXtititX0< 0<< <09 00XXXtXXX0XX+-;;;;,888",
"XXX=;;;;;8+tXXXXX0< 0<< <0< 00+tttttX<+88;;;;;>888",
"XXX=;;;;;;+XX    0< 0<< <09 0<XtXX+tX<X;;;;;;;;;;;",
"XXX=;;;;:;-X 9< 00< 0<< <09 <<+i+++iX<X-;;;;;;;;;;",
"XXX=;;;;-++X99< 00< 00< 009 << +iiiX.<XXO;;;;;;-;;",
"===;;;;;;88X<0< 0<0 00< 009 <<9 ++X <<O88;;;;;:877",
";;;;;;;;;;;+<9< 000 000 0<9 <<9     <<+-:;;;;;>888",
";;;;;;;;::X+X0< 0<0 000 0<9 <<9 999 <<X-;;;;;;:888",
";;;;;;;;-XXt++++X<0 000 0<9 <99 999 <<X++;;;;;1888",
";;;;;;;;;8XtititX<0 000 0<0 <09 009 <0X88;;;;;,888",
";;;;;;;;;;XtXXXXX<0 <00 0<9 <09 009 <0X-;;;;;;,888",
"###-;;;;;;XXX... <0 <0< 0<9 <00 009 <0+;;;;;;;,333",
"XXX=;;;;;;;X000.0<0 <0< 009 000.<0< <<+-;;;;;;;-;;",
"XXX=;;;;:XXX..                ..      +X+;;;;;;;;;",
"XXX=;;;;;88XXXXX+++X++++XXX+XXX+XX++XX+88;;;;;;;;;",
"XXX=;;;;;;;8Xeqqww wqqq qw weww qwwweX8;-;;;;;;;;;",
"XXX=;;;;;;;-8X;-;;+:---+-;+;-;;+-;;;X8-;;;;;;;;;;;",
"XXX=;;;;;XXXXXXX+++++O+++++++++O+++++++++;;;;;:322",
"XXX=;;;;;;;;;;;;;;;;;=;;-;-;-;=;-;-;-;;;;;;;;;,888",
"XX+=;;;;;;;;;;;;;;;;;;;;;;;;;;;;;;;;;;;;;;;;;;,888",
"XX+=;;;;;;;;;;;;;;;;;;;;;;;;;;;;;;;;;;;;;;;;;;,888",
"XXX=;;;;;;;;;;;;;;;;;;;;;;;;;;;;;;;;;;;;;;;;;;,888",
"XXX=;;;;;;;;;;;;;;;;;;;;;;;;;;;;;;;;;;;;;;;;;;,888",
"@@@-,,,,,:;;;;;:1::;;;:>1::1:11:,,;;;;1::1,,,,1888",
"8888888883;;;;;3885;;>8888888888883;;4888888888888",
"8888888883-;;;;3885;;,8888888888882;;4888888888888",
"8888888883::;;;3885;;,8888888888883;;4888888888888"
};
